<svg width="34" height="34" viewBox="0 0 34 34" fill="none" xmlns="http://www.w3.org/2000/svg">
<rect x="0.21875" y="0.21875" width="33.0488" height="33.0488" rx="4.1311" fill="#F9F3FF"/>
<g clip-path="url(#clip0_1779_47641)">
<path d="M11.359 6.85588C11.1808 6.89073 7.77654 8.26561 7.57128 8.38955C7.28468 8.55996 7.04844 8.82331 6.94 9.09829L6.84705 9.32679V16.7434V24.16L6.94 24.3885C7.05231 24.6674 7.26919 24.9114 7.55966 25.0856C7.67972 25.1553 8.57823 25.5349 9.55808 25.9261C11.3202 26.6309 11.3435 26.6387 11.6301 26.6387C12.2614 26.6348 12.6603 26.232 12.7571 25.5C12.7803 25.3103 12.792 22.119 12.7842 16.5304C12.7726 8.09133 12.7687 7.85121 12.699 7.66144C12.5402 7.24704 12.3466 7.04178 11.9786 6.90235C11.7966 6.83264 11.5797 6.81715 11.359 6.85588ZM11.8547 7.56462C11.9244 7.60722 12.0135 7.70792 12.0484 7.78925C12.1103 7.92093 12.1142 8.55608 12.1142 16.7434C12.1142 24.9307 12.1103 25.5659 12.0484 25.6976C11.9593 25.8989 11.7695 26.0113 11.572 25.9842C11.4093 25.9609 8.37684 24.7642 7.98955 24.5667C7.70683 24.4234 7.57902 24.2723 7.5248 24.0167C7.49382 23.8657 7.48608 21.8634 7.49382 16.6079C7.50544 9.89223 7.50931 9.3965 7.57128 9.28419C7.65648 9.1254 7.83076 8.9821 8.05926 8.87753C8.29551 8.77296 11.3086 7.56462 11.4364 7.52589C11.603 7.47167 11.723 7.48329 11.8547 7.56462Z" fill="#BF83FF"/>
<path d="M10.9077 15.5224L10.7993 15.6153L10.7877 16.6184C10.7799 17.1683 10.7877 17.6757 10.7993 17.7493C10.8535 18.0397 11.1517 18.1598 11.3415 17.9662L11.4383 17.8732V16.7462V15.6192L11.3415 15.5262C11.2214 15.4023 11.051 15.4023 10.9077 15.5224Z" fill="#BF83FF"/>
<path d="M13.5874 8.19064C13.4015 8.29134 13.355 8.52759 13.4867 8.69025L13.5603 8.7832L16.1125 8.80256C18.6338 8.82193 18.6609 8.82193 18.8197 8.90713C19.0133 9.0117 19.1954 9.1976 19.2883 9.37963C19.3541 9.50743 19.358 9.72044 19.3774 12.1991L19.3968 14.8753L19.4897 14.976C19.6175 15.1115 19.8112 15.1115 19.939 14.9798L20.0358 14.8869V12.1991C20.0358 9.66235 20.0319 9.49969 19.9622 9.29829C19.7608 8.70961 19.2883 8.29909 18.6841 8.1829C18.3898 8.12868 13.692 8.13255 13.5874 8.19064Z" fill="#BF83FF"/>
<path d="M22.884 13.1513C22.76 13.2172 22.7097 13.3024 22.7097 13.4496C22.7097 13.5774 22.7988 13.6742 24.1117 14.991L25.5137 16.3968L19.9057 16.4046L14.2978 16.4162L14.2048 16.5246C14.0847 16.6679 14.0847 16.8383 14.2087 16.9584L14.3016 17.0552H19.9018C22.9808 17.0552 25.4982 17.0668 25.4982 17.0823C25.4982 17.0978 24.8708 17.7407 24.1039 18.5076C22.8026 19.8127 22.7097 19.9134 22.7097 20.0374C22.7136 20.2039 22.7794 20.2969 22.9343 20.3511C23.0273 20.3821 23.0776 20.3782 23.1628 20.3317C23.3449 20.2349 26.6136 16.9313 26.6407 16.8151C26.6562 16.757 26.6562 16.6796 26.6446 16.6408C26.633 16.6021 25.8429 15.7927 24.8863 14.8361C23.0815 13.0313 23.0892 13.039 22.884 13.1513Z" fill="#BF83FF"/>
<path d="M19.4907 18.5095L19.3978 18.6102L19.3784 21.2864C19.359 23.9432 19.359 23.9664 19.2738 24.1213C19.1654 24.3227 18.9718 24.5048 18.7781 24.5938C18.6348 24.6597 18.4218 24.6635 16.1135 24.6829L13.6 24.7023L13.5264 24.7952C13.4412 24.8998 13.4335 25.0973 13.5071 25.1941C13.5342 25.2329 13.6039 25.2793 13.662 25.3026C13.8014 25.3529 18.3405 25.3568 18.6619 25.3026C19.2738 25.2019 19.7967 24.7371 19.9787 24.1291C20.0291 23.9625 20.0368 23.5365 20.0368 21.267V18.5986L19.94 18.5056C19.8122 18.3739 19.6185 18.3739 19.4907 18.5095Z" fill="#BF83FF"/>
</g>
<defs>
<clipPath id="clip0_1779_47641">
<rect width="19.8293" height="19.8293" fill="white" transform="translate(6.82849 6.82812)"/>
</clipPath>
</defs>
</svg>
