<svg width="22" height="22" viewBox="0 0 22 22" fill="none" xmlns="http://www.w3.org/2000/svg">
<path fill-rule="evenodd" clip-rule="evenodd" d="M7.25802 1.51115C7.25802 0.926817 6.71644 0.453125 6.04835 0.453125C5.38027 0.453125 4.83868 0.926817 4.83868 1.51115H3.62901C1.62476 1.51115 0 2.93222 0 4.68521V18.4395C0 20.1925 1.62476 21.6135 3.62901 21.6135H18.1451C20.1493 21.6135 21.7741 20.1925 21.7741 18.4395V4.68521C21.7741 2.93222 20.1493 1.51115 18.1451 1.51115H16.9354C16.9354 0.926817 16.3938 0.453125 15.7257 0.453125C15.0576 0.453125 14.516 0.926817 14.516 1.51115H7.25802ZM19.3547 5.74323V4.68521C19.3547 4.10088 18.8131 3.62719 18.1451 3.62719H16.9354C16.9354 4.21152 16.3938 4.68521 15.7257 4.68521C15.0576 4.68521 14.516 4.21152 14.516 3.62719H7.25802C7.25802 4.21152 6.71644 4.68521 6.04835 4.68521C5.38027 4.68521 4.83868 4.21152 4.83868 3.62719H3.62901C2.96093 3.62719 2.41934 4.10088 2.41934 4.68521V5.74323H19.3547ZM2.41934 7.85927V18.4395C2.41934 19.0238 2.96093 19.4975 3.62901 19.4975H18.1451C18.8131 19.4975 19.3547 19.0238 19.3547 18.4395V7.85927H2.41934Z" fill="#667085"/>
</svg>
