<svg width="329" height="322" viewBox="0 0 329 322" fill="none" xmlns="http://www.w3.org/2000/svg">
<path d="M31.3085 64.8264C31.7988 44.7221 52.5568 36.0185 62.8745 34.1797L63.7939 35.4056C128.765 48.8901 262.875 75.5527 279.546 74.3268C296.218 73.101 302.429 85.8704 303.451 92.4084C322.084 147.572 289.353 179.751 270.659 188.945C198.333 214.382 97.8117 162.896 62.8745 139.911C27.9373 116.926 30.6955 89.9566 31.3085 64.8264Z" fill="#F7E3E3"/>
<path d="M137.117 265.568V280.854H134.326L127.676 271.233H127.564V280.854H124.332V265.568H127.168L133.766 275.181H133.901V265.568H137.117ZM144.907 281.077C143.748 281.077 142.745 280.831 141.9 280.339C141.059 279.841 140.409 279.149 139.952 278.264C139.494 277.373 139.265 276.341 139.265 275.166C139.265 273.982 139.494 272.947 139.952 272.061C140.409 271.171 141.059 270.479 141.9 269.987C142.745 269.489 143.748 269.24 144.907 269.24C146.067 269.24 147.067 269.489 147.908 269.987C148.754 270.479 149.406 271.171 149.863 272.061C150.321 272.947 150.55 273.982 150.55 275.166C150.55 276.341 150.321 277.373 149.863 278.264C149.406 279.149 148.754 279.841 147.908 280.339C147.067 280.831 146.067 281.077 144.907 281.077ZM144.922 278.614C145.45 278.614 145.89 278.465 146.243 278.167C146.597 277.863 146.863 277.45 147.042 276.928C147.226 276.405 147.318 275.811 147.318 275.144C147.318 274.477 147.226 273.883 147.042 273.36C146.863 272.838 146.597 272.425 146.243 272.121C145.89 271.818 145.45 271.666 144.922 271.666C144.39 271.666 143.942 271.818 143.579 272.121C143.221 272.425 142.949 272.838 142.765 273.36C142.586 273.883 142.497 274.477 142.497 275.144C142.497 275.811 142.586 276.405 142.765 276.928C142.949 277.45 143.221 277.863 143.579 278.167C143.942 278.465 144.39 278.614 144.922 278.614ZM157.541 280.854V265.568H167.841V268.233H160.773V271.875H167.311V274.539H160.773V278.189H167.871V280.854H157.541ZM181.039 269.389L177.031 280.854H173.448L169.44 269.389H172.799L175.18 277.592H175.299L177.673 269.389H181.039ZM187.521 281.077C186.342 281.077 185.327 280.839 184.476 280.361C183.63 279.878 182.978 279.197 182.52 278.316C182.062 277.43 181.834 276.383 181.834 275.174C181.834 273.994 182.062 272.96 182.52 272.069C182.978 271.178 183.622 270.484 184.453 269.987C185.289 269.489 186.269 269.24 187.394 269.24C188.15 269.24 188.854 269.362 189.506 269.606C190.163 269.845 190.735 270.205 191.223 270.688C191.715 271.171 192.099 271.778 192.372 272.509C192.646 273.236 192.783 274.087 192.783 275.062V275.935H183.102V273.965H189.79C189.79 273.507 189.69 273.101 189.491 272.748C189.292 272.395 189.016 272.119 188.663 271.92C188.314 271.716 187.909 271.614 187.446 271.614C186.964 271.614 186.536 271.726 186.162 271.949C185.794 272.168 185.506 272.464 185.297 272.838C185.088 273.206 184.981 273.616 184.976 274.069V275.942C184.976 276.51 185.08 277 185.289 277.413C185.503 277.826 185.804 278.144 186.192 278.368C186.58 278.592 187.041 278.704 187.573 278.704C187.926 278.704 188.25 278.654 188.543 278.555C188.837 278.455 189.088 278.306 189.297 278.107C189.506 277.908 189.665 277.664 189.775 277.375L192.716 277.57C192.566 278.276 192.26 278.893 191.797 279.421C191.34 279.943 190.748 280.351 190.021 280.645C189.3 280.933 188.466 281.077 187.521 281.077ZM198.037 274.226V280.854H194.858V269.389H197.888V271.412H198.022C198.276 270.745 198.701 270.218 199.298 269.83C199.895 269.437 200.619 269.24 201.47 269.24C202.266 269.24 202.961 269.414 203.553 269.763C204.145 270.111 204.605 270.608 204.933 271.255C205.262 271.897 205.426 272.663 205.426 273.554V280.854H202.247V274.121C202.251 273.42 202.072 272.872 201.709 272.479C201.346 272.081 200.846 271.882 200.209 271.882C199.781 271.882 199.403 271.974 199.074 272.158C198.751 272.343 198.497 272.611 198.313 272.964C198.134 273.313 198.042 273.733 198.037 274.226ZM214.03 269.389V271.778H207.126V269.389H214.03ZM208.693 266.643H211.873V277.331C211.873 277.624 211.917 277.853 212.007 278.017C212.097 278.177 212.221 278.289 212.38 278.353C212.544 278.418 212.733 278.45 212.947 278.45C213.097 278.45 213.246 278.438 213.395 278.413C213.545 278.383 213.659 278.361 213.739 278.346L214.239 280.712C214.079 280.761 213.856 280.819 213.567 280.883C213.278 280.953 212.928 280.995 212.515 281.01C211.748 281.04 211.077 280.938 210.499 280.704C209.927 280.47 209.482 280.107 209.163 279.615C208.845 279.122 208.688 278.5 208.693 277.749V266.643Z" fill="#687281"/>
<path d="M58.4701 300.48H60.3246L64.0336 306.723H64.1903L67.8992 300.48H69.7537L64.9216 308.342V313.854H63.3022V308.342L58.4701 300.48ZM74.2952 314.062C73.3897 314.062 72.5953 313.847 71.9118 313.416C71.2327 312.985 70.7016 312.382 70.3185 311.607C69.9398 310.832 69.7504 309.927 69.7504 308.891C69.7504 307.846 69.9398 306.934 70.3185 306.155C70.7016 305.376 71.2327 304.771 71.9118 304.34C72.5953 303.909 73.3897 303.693 74.2952 303.693C75.2007 303.693 75.9929 303.909 76.672 304.34C77.3555 304.771 77.8866 305.376 78.2653 306.155C78.6484 306.934 78.84 307.846 78.84 308.891C78.84 309.927 78.6484 310.832 78.2653 311.607C77.8866 312.382 77.3555 312.985 76.672 313.416C75.9929 313.847 75.2007 314.062 74.2952 314.062ZM74.2952 312.678C74.983 312.678 75.5489 312.502 75.9929 312.149C76.437 311.797 76.7656 311.333 76.979 310.758C77.1923 310.184 77.2989 309.561 77.2989 308.891C77.2989 308.22 77.1923 307.596 76.979 307.017C76.7656 306.438 76.437 305.97 75.9929 305.613C75.5489 305.256 74.983 305.077 74.2952 305.077C73.6074 305.077 73.0415 305.256 72.5974 305.613C72.1534 305.97 71.8247 306.438 71.6114 307.017C71.3981 307.596 71.2915 308.22 71.2915 308.891C71.2915 309.561 71.3981 310.184 71.6114 310.758C71.8247 311.333 72.1534 311.797 72.5974 312.149C73.0415 312.502 73.6074 312.678 74.2952 312.678ZM87.5132 309.753V303.824H89.0542V313.854H87.5132V312.156H87.4087C87.1736 312.665 86.808 313.098 86.3117 313.455C85.8154 313.808 85.1886 313.984 84.4311 313.984C83.8043 313.984 83.247 313.847 82.7595 313.573C82.2719 313.294 81.8888 312.876 81.6102 312.319C81.3316 311.757 81.1923 311.05 81.1923 310.197V303.824H82.7334V310.092C82.7334 310.824 82.938 311.407 83.3472 311.842C83.7607 312.278 84.2875 312.495 84.9274 312.495C85.3105 312.495 85.7001 312.397 86.0962 312.201C86.4967 312.006 86.8319 311.705 87.1018 311.3C87.3761 310.896 87.5132 310.38 87.5132 309.753ZM98.5894 307.82V313.854H97.0484V300.48H98.5894V305.391H98.72C98.9551 304.873 99.3077 304.461 99.7779 304.157C100.252 303.848 100.884 303.693 101.672 303.693C102.355 303.693 102.954 303.83 103.467 304.104C103.981 304.374 104.379 304.79 104.662 305.352C104.949 305.909 105.093 306.618 105.093 307.48V313.854H103.552V307.585C103.552 306.788 103.345 306.172 102.932 305.737C102.523 305.297 101.954 305.077 101.227 305.077C100.723 305.077 100.27 305.184 99.8693 305.397C99.4731 305.611 99.1597 305.922 98.929 306.331C98.7026 306.74 98.5894 307.237 98.5894 307.82ZM110.864 314.089C110.228 314.089 109.651 313.969 109.133 313.729C108.615 313.486 108.204 313.135 107.899 312.678C107.595 312.217 107.442 311.659 107.442 311.007C107.442 310.432 107.555 309.966 107.782 309.609C108.008 309.248 108.311 308.965 108.689 308.76C109.068 308.556 109.486 308.403 109.943 308.303C110.405 308.199 110.868 308.116 111.334 308.055C111.943 307.977 112.438 307.918 112.816 307.879C113.199 307.835 113.478 307.763 113.652 307.663C113.831 307.563 113.92 307.389 113.92 307.141V307.089C113.92 306.444 113.744 305.944 113.391 305.587C113.043 305.23 112.514 305.051 111.804 305.051C111.068 305.051 110.492 305.212 110.074 305.535C109.656 305.857 109.362 306.201 109.192 306.566L107.73 306.044C107.991 305.434 108.339 304.96 108.774 304.62C109.214 304.276 109.693 304.037 110.211 303.902C110.733 303.763 111.247 303.693 111.752 303.693C112.074 303.693 112.444 303.732 112.862 303.811C113.284 303.885 113.691 304.039 114.083 304.274C114.479 304.509 114.808 304.864 115.069 305.339C115.33 305.813 115.461 306.449 115.461 307.245V313.854H113.92V312.495H113.841C113.737 312.713 113.563 312.946 113.319 313.194C113.075 313.442 112.751 313.653 112.346 313.827C111.941 314.002 111.447 314.089 110.864 314.089ZM111.099 312.704C111.708 312.704 112.222 312.585 112.64 312.345C113.062 312.106 113.38 311.797 113.593 311.418C113.811 311.039 113.92 310.641 113.92 310.223V308.812C113.855 308.891 113.711 308.963 113.489 309.028C113.271 309.089 113.019 309.143 112.731 309.191C112.448 309.235 112.172 309.274 111.902 309.309C111.637 309.339 111.421 309.365 111.256 309.387C110.855 309.439 110.481 309.524 110.133 309.642C109.789 309.755 109.51 309.927 109.297 310.158C109.088 310.384 108.983 310.693 108.983 311.085C108.983 311.62 109.181 312.025 109.577 312.299C109.978 312.569 110.485 312.704 111.099 312.704ZM126.116 303.824L122.407 313.854H120.84L117.131 303.824H118.803L121.571 311.816H121.676L124.444 303.824H126.116ZM131.996 314.062C131.03 314.062 130.196 313.849 129.495 313.423C128.799 312.992 128.261 312.391 127.882 311.62C127.508 310.845 127.321 309.944 127.321 308.917C127.321 307.89 127.508 306.984 127.882 306.201C128.261 305.413 128.788 304.799 129.462 304.359C130.142 303.915 130.934 303.693 131.839 303.693C132.362 303.693 132.878 303.78 133.387 303.954C133.896 304.128 134.36 304.411 134.778 304.803C135.196 305.191 135.529 305.704 135.777 306.344C136.025 306.984 136.149 307.772 136.149 308.708V309.361H128.418V308.029H134.582C134.582 307.463 134.469 306.958 134.242 306.514C134.02 306.07 133.702 305.72 133.289 305.463C132.88 305.206 132.397 305.077 131.839 305.077C131.226 305.077 130.694 305.23 130.246 305.535C129.802 305.835 129.46 306.227 129.221 306.71C128.981 307.193 128.862 307.711 128.862 308.264V309.152C128.862 309.909 128.992 310.552 129.254 311.078C129.519 311.601 129.887 311.999 130.357 312.273C130.827 312.543 131.374 312.678 131.996 312.678C132.401 312.678 132.767 312.622 133.093 312.508C133.424 312.391 133.709 312.217 133.948 311.986C134.188 311.751 134.373 311.459 134.503 311.111L135.992 311.529C135.836 312.034 135.572 312.478 135.202 312.861C134.832 313.24 134.375 313.536 133.831 313.749C133.287 313.958 132.675 314.062 131.996 314.062ZM145.206 307.82V313.854H143.665V303.824H145.154V305.391H145.284C145.519 304.882 145.876 304.472 146.355 304.163C146.834 303.85 147.452 303.693 148.21 303.693C148.889 303.693 149.483 303.832 149.992 304.111C150.502 304.385 150.898 304.803 151.181 305.365C151.464 305.922 151.605 306.627 151.605 307.48V313.854H150.064V307.585C150.064 306.797 149.859 306.183 149.45 305.743C149.041 305.299 148.479 305.077 147.766 305.077C147.274 305.077 146.834 305.184 146.447 305.397C146.063 305.611 145.761 305.922 145.539 306.331C145.317 306.74 145.206 307.237 145.206 307.82ZM158.496 314.062C157.59 314.062 156.796 313.847 156.112 313.416C155.433 312.985 154.902 312.382 154.519 311.607C154.14 310.832 153.951 309.927 153.951 308.891C153.951 307.846 154.14 306.934 154.519 306.155C154.902 305.376 155.433 304.771 156.112 304.34C156.796 303.909 157.59 303.693 158.496 303.693C159.401 303.693 160.193 303.909 160.873 304.34C161.556 304.771 162.087 305.376 162.466 306.155C162.849 306.934 163.04 307.846 163.04 308.891C163.04 309.927 162.849 310.832 162.466 311.607C162.087 312.382 161.556 312.985 160.873 313.416C160.193 313.847 159.401 314.062 158.496 314.062ZM158.496 312.678C159.184 312.678 159.749 312.502 160.193 312.149C160.637 311.797 160.966 311.333 161.179 310.758C161.393 310.184 161.499 309.561 161.499 308.891C161.499 308.22 161.393 307.596 161.179 307.017C160.966 306.438 160.637 305.97 160.193 305.613C159.749 305.256 159.184 305.077 158.496 305.077C157.808 305.077 157.242 305.256 156.798 305.613C156.354 305.97 156.025 306.438 155.812 307.017C155.599 307.596 155.492 308.22 155.492 308.891C155.492 309.561 155.599 310.184 155.812 310.758C156.025 311.333 156.354 311.797 156.798 312.149C157.242 312.502 157.808 312.678 158.496 312.678ZM176.885 309.753V303.824H178.426V313.854H176.885V312.156H176.781C176.546 312.665 176.18 313.098 175.684 313.455C175.188 313.808 174.561 313.984 173.803 313.984C173.176 313.984 172.619 313.847 172.132 313.573C171.644 313.294 171.261 312.876 170.982 312.319C170.704 311.757 170.564 311.05 170.564 310.197V303.824H172.106V310.092C172.106 310.824 172.31 311.407 172.719 311.842C173.133 312.278 173.66 312.495 174.3 312.495C174.683 312.495 175.072 312.397 175.468 312.201C175.869 312.006 176.204 311.705 176.474 311.3C176.748 310.896 176.885 310.38 176.885 309.753ZM181.249 317.615V303.824H182.738V305.417H182.921C183.034 305.243 183.19 305.021 183.391 304.751C183.595 304.477 183.887 304.233 184.266 304.02C184.649 303.802 185.167 303.693 185.82 303.693C186.664 303.693 187.409 303.904 188.053 304.326C188.697 304.749 189.2 305.347 189.561 306.122C189.923 306.897 190.103 307.811 190.103 308.865C190.103 309.927 189.923 310.848 189.561 311.627C189.2 312.402 188.699 313.002 188.06 313.429C187.42 313.851 186.682 314.062 185.846 314.062C185.202 314.062 184.686 313.956 184.298 313.743C183.911 313.525 183.613 313.279 183.404 313.005C183.195 312.726 183.034 312.495 182.921 312.312H182.79V317.615H181.249ZM182.764 308.839C182.764 309.596 182.875 310.264 183.097 310.843C183.319 311.418 183.643 311.868 184.07 312.195C184.496 312.517 185.019 312.678 185.637 312.678C186.281 312.678 186.819 312.508 187.25 312.169C187.685 311.825 188.012 311.363 188.229 310.784C188.451 310.201 188.562 309.553 188.562 308.839C188.562 308.133 188.453 307.498 188.236 306.932C188.023 306.362 187.698 305.911 187.263 305.58C186.832 305.245 186.29 305.077 185.637 305.077C185.01 305.077 184.483 305.236 184.057 305.554C183.63 305.868 183.308 306.307 183.09 306.873C182.873 307.435 182.764 308.09 182.764 308.839ZM196.529 314.062C195.588 314.062 194.779 313.84 194.1 313.396C193.42 312.952 192.898 312.341 192.532 311.562C192.167 310.782 191.984 309.892 191.984 308.891C191.984 307.872 192.171 306.973 192.546 306.194C192.924 305.41 193.451 304.799 194.126 304.359C194.805 303.915 195.597 303.693 196.503 303.693C197.208 303.693 197.843 303.824 198.409 304.085C198.975 304.346 199.439 304.712 199.8 305.182C200.161 305.652 200.386 306.201 200.473 306.827H198.932C198.814 306.37 198.553 305.965 198.148 305.613C197.748 305.256 197.208 305.077 196.529 305.077C195.928 305.077 195.401 305.234 194.948 305.548C194.5 305.857 194.15 306.294 193.897 306.86C193.649 307.422 193.525 308.081 193.525 308.839C193.525 309.613 193.647 310.288 193.891 310.863C194.139 311.437 194.487 311.884 194.935 312.201C195.388 312.519 195.919 312.678 196.529 312.678C196.929 312.678 197.293 312.608 197.619 312.469C197.946 312.33 198.222 312.13 198.448 311.868C198.675 311.607 198.836 311.294 198.932 310.928H200.473C200.386 311.52 200.17 312.053 199.826 312.528C199.487 312.998 199.036 313.372 198.475 313.651C197.917 313.925 197.269 314.062 196.529 314.062ZM206.8 314.062C205.895 314.062 205.1 313.847 204.417 313.416C203.738 312.985 203.207 312.382 202.823 311.607C202.445 310.832 202.255 309.927 202.255 308.891C202.255 307.846 202.445 306.934 202.823 306.155C203.207 305.376 203.738 304.771 204.417 304.34C205.1 303.909 205.895 303.693 206.8 303.693C207.706 303.693 208.498 303.909 209.177 304.34C209.86 304.771 210.392 305.376 210.77 306.155C211.153 306.934 211.345 307.846 211.345 308.891C211.345 309.927 211.153 310.832 210.77 311.607C210.392 312.382 209.86 312.985 209.177 313.416C208.498 313.847 207.706 314.062 206.8 314.062ZM206.8 312.678C207.488 312.678 208.054 312.502 208.498 312.149C208.942 311.797 209.271 311.333 209.484 310.758C209.697 310.184 209.804 309.561 209.804 308.891C209.804 308.22 209.697 307.596 209.484 307.017C209.271 306.438 208.942 305.97 208.498 305.613C208.054 305.256 207.488 305.077 206.8 305.077C206.112 305.077 205.546 305.256 205.102 305.613C204.658 305.97 204.33 306.438 204.116 307.017C203.903 307.596 203.796 308.22 203.796 308.891C203.796 309.561 203.903 310.184 204.116 310.758C204.33 311.333 204.658 311.797 205.102 312.149C205.546 312.502 206.112 312.678 206.8 312.678ZM213.697 313.854V303.824H215.186V305.391H215.317C215.526 304.855 215.863 304.44 216.329 304.144C216.795 303.843 217.354 303.693 218.007 303.693C218.669 303.693 219.219 303.843 219.659 304.144C220.103 304.44 220.449 304.855 220.697 305.391H220.802C221.059 304.873 221.444 304.461 221.957 304.157C222.471 303.848 223.087 303.693 223.805 303.693C224.702 303.693 225.436 303.974 226.006 304.535C226.576 305.093 226.861 305.961 226.861 307.141V313.854H225.32V307.141C225.32 306.401 225.118 305.872 224.713 305.554C224.308 305.236 223.832 305.077 223.283 305.077C222.578 305.077 222.032 305.291 221.644 305.717C221.257 306.14 221.063 306.675 221.063 307.324V313.854H219.496V306.984C219.496 306.414 219.311 305.955 218.941 305.606C218.571 305.254 218.094 305.077 217.511 305.077C217.11 305.077 216.736 305.184 216.388 305.397C216.044 305.611 215.765 305.907 215.552 306.285C215.343 306.66 215.238 307.093 215.238 307.585V313.854H213.697ZM229.679 313.854V303.824H231.22V313.854H229.679ZM230.463 302.152C230.162 302.152 229.903 302.05 229.686 301.845C229.472 301.641 229.366 301.395 229.366 301.107C229.366 300.82 229.472 300.574 229.686 300.369C229.903 300.165 230.162 300.063 230.463 300.063C230.763 300.063 231.02 300.165 231.233 300.369C231.451 300.574 231.56 300.82 231.56 301.107C231.56 301.395 231.451 301.641 231.233 301.845C231.02 302.05 230.763 302.152 230.463 302.152ZM235.584 307.82V313.854H234.043V303.824H235.531V305.391H235.662C235.897 304.882 236.254 304.472 236.733 304.163C237.212 303.85 237.83 303.693 238.587 303.693C239.266 303.693 239.861 303.832 240.37 304.111C240.879 304.385 241.275 304.803 241.558 305.365C241.841 305.922 241.983 306.627 241.983 307.48V313.854H240.442V307.585C240.442 306.797 240.237 306.183 239.828 305.743C239.419 305.299 238.857 305.077 238.143 305.077C237.651 305.077 237.212 305.184 236.824 305.397C236.441 305.611 236.139 305.922 235.917 306.331C235.695 306.74 235.584 307.237 235.584 307.82ZM248.847 317.824C248.103 317.824 247.463 317.728 246.928 317.536C246.392 317.349 245.946 317.101 245.589 316.792C245.236 316.487 244.956 316.161 244.747 315.812L245.974 314.951C246.114 315.133 246.29 315.342 246.503 315.577C246.716 315.817 247.008 316.024 247.378 316.198C247.753 316.376 248.242 316.465 248.847 316.465C249.657 316.465 250.325 316.27 250.852 315.878C251.379 315.486 251.642 314.872 251.642 314.036V311.999H251.512C251.398 312.182 251.237 312.408 251.028 312.678C250.824 312.944 250.528 313.181 250.14 313.39C249.757 313.594 249.239 313.697 248.586 313.697C247.776 313.697 247.049 313.505 246.405 313.122C245.765 312.739 245.258 312.182 244.884 311.451C244.514 310.719 244.329 309.831 244.329 308.786C244.329 307.759 244.509 306.864 244.871 306.103C245.232 305.336 245.735 304.744 246.379 304.326C247.023 303.904 247.768 303.693 248.612 303.693C249.265 303.693 249.783 303.802 250.166 304.02C250.554 304.233 250.85 304.477 251.054 304.751C251.263 305.021 251.424 305.243 251.538 305.417H251.694V303.824H253.183V314.141C253.183 315.003 252.987 315.704 252.595 316.243C252.208 316.788 251.686 317.186 251.028 317.438C250.375 317.695 249.648 317.824 248.847 317.824ZM248.795 312.312C249.413 312.312 249.936 312.171 250.362 311.888C250.789 311.605 251.113 311.198 251.335 310.667C251.557 310.136 251.668 309.5 251.668 308.76C251.668 308.038 251.559 307.4 251.342 306.847C251.124 306.294 250.802 305.861 250.375 305.548C249.949 305.234 249.422 305.077 248.795 305.077C248.142 305.077 247.598 305.243 247.163 305.574C246.732 305.905 246.407 306.349 246.19 306.906C245.976 307.463 245.87 308.081 245.87 308.76C245.87 309.457 245.979 310.073 246.196 310.608C246.418 311.139 246.745 311.557 247.176 311.862C247.611 312.162 248.151 312.312 248.795 312.312ZM265.381 314.062C264.414 314.062 263.581 313.849 262.88 313.423C262.183 312.992 261.646 312.391 261.267 311.62C260.893 310.845 260.706 309.944 260.706 308.917C260.706 307.89 260.893 306.984 261.267 306.201C261.646 305.413 262.173 304.799 262.847 304.359C263.526 303.915 264.319 303.693 265.224 303.693C265.747 303.693 266.262 303.78 266.772 303.954C267.281 304.128 267.745 304.411 268.163 304.803C268.58 305.191 268.914 305.704 269.162 306.344C269.41 306.984 269.534 307.772 269.534 308.708V309.361H261.803V308.029H267.967C267.967 307.463 267.853 306.958 267.627 306.514C267.405 306.07 267.087 305.72 266.674 305.463C266.265 305.206 265.781 305.077 265.224 305.077C264.61 305.077 264.079 305.23 263.631 305.535C263.187 305.835 262.845 306.227 262.606 306.71C262.366 307.193 262.247 307.711 262.247 308.264V309.152C262.247 309.909 262.377 310.552 262.638 311.078C262.904 311.601 263.272 311.999 263.742 312.273C264.212 312.543 264.758 312.678 265.381 312.678C265.786 312.678 266.151 312.622 266.478 312.508C266.809 312.391 267.094 312.217 267.333 311.986C267.573 311.751 267.758 311.459 267.888 311.111L269.377 311.529C269.22 312.034 268.957 312.478 268.587 312.861C268.217 313.24 267.76 313.536 267.216 313.749C266.672 313.958 266.06 314.062 265.381 314.062ZM279.774 303.824L276.065 313.854H274.498L270.789 303.824H272.461L275.229 311.816H275.334L278.103 303.824H279.774ZM285.654 314.062C284.688 314.062 283.854 313.849 283.153 313.423C282.457 312.992 281.919 312.391 281.541 311.62C281.166 310.845 280.979 309.944 280.979 308.917C280.979 307.89 281.166 306.984 281.541 306.201C281.919 305.413 282.446 304.799 283.121 304.359C283.8 303.915 284.592 303.693 285.498 303.693C286.02 303.693 286.536 303.78 287.045 303.954C287.555 304.128 288.018 304.411 288.436 304.803C288.854 305.191 289.187 305.704 289.435 306.344C289.683 306.984 289.807 307.772 289.807 308.708V309.361H282.076V308.029H288.24C288.24 307.463 288.127 306.958 287.901 306.514C287.679 306.07 287.361 305.72 286.947 305.463C286.538 305.206 286.055 305.077 285.498 305.077C284.884 305.077 284.353 305.23 283.904 305.535C283.46 305.835 283.119 306.227 282.879 306.71C282.64 307.193 282.52 307.711 282.52 308.264V309.152C282.52 309.909 282.651 310.552 282.912 311.078C283.177 311.601 283.545 311.999 284.015 312.273C284.486 312.543 285.032 312.678 285.654 312.678C286.059 312.678 286.425 312.622 286.751 312.508C287.082 312.391 287.367 312.217 287.607 311.986C287.846 311.751 288.031 311.459 288.162 311.111L289.651 311.529C289.494 312.034 289.231 312.478 288.86 312.861C288.49 313.24 288.033 313.536 287.489 313.749C286.945 313.958 286.333 314.062 285.654 314.062ZM293.693 307.82V313.854H292.152V303.824H293.64V305.391H293.771C294.006 304.882 294.363 304.472 294.842 304.163C295.321 303.85 295.939 303.693 296.696 303.693C297.375 303.693 297.97 303.832 298.479 304.111C298.988 304.385 299.384 304.803 299.667 305.365C299.95 305.922 300.092 306.627 300.092 307.48V313.854H298.551V307.585C298.551 306.797 298.346 306.183 297.937 305.743C297.528 305.299 296.966 305.077 296.252 305.077C295.76 305.077 295.321 305.184 294.933 305.397C294.55 305.611 294.248 305.922 294.026 306.331C293.804 306.74 293.693 307.237 293.693 307.82ZM307.27 303.824V305.13H302.072V303.824H307.27ZM303.587 301.421H305.128V310.98C305.128 311.416 305.191 311.742 305.317 311.96C305.448 312.173 305.613 312.317 305.814 312.391C306.018 312.46 306.234 312.495 306.46 312.495C306.63 312.495 306.769 312.487 306.878 312.469C306.987 312.447 307.074 312.43 307.139 312.417L307.453 313.801C307.348 313.84 307.202 313.88 307.015 313.919C306.828 313.962 306.591 313.984 306.303 313.984C305.868 313.984 305.441 313.891 305.023 313.703C304.61 313.516 304.266 313.231 303.992 312.848C303.722 312.465 303.587 311.982 303.587 311.398V301.421ZM316.513 306.07L315.128 306.462C315.041 306.231 314.913 306.007 314.743 305.789C314.578 305.567 314.351 305.384 314.064 305.241C313.777 305.097 313.409 305.025 312.96 305.025C312.347 305.025 311.835 305.167 311.426 305.45C311.021 305.728 310.819 306.083 310.819 306.514C310.819 306.897 310.958 307.2 311.237 307.422C311.515 307.644 311.951 307.829 312.543 307.977L314.031 308.342C314.928 308.56 315.596 308.893 316.036 309.341C316.476 309.785 316.696 310.358 316.696 311.059C316.696 311.633 316.53 312.147 316.199 312.6C315.873 313.053 315.416 313.409 314.828 313.671C314.24 313.932 313.557 314.062 312.778 314.062C311.755 314.062 310.908 313.84 310.238 313.396C309.567 312.952 309.143 312.304 308.964 311.451L310.427 311.085C310.566 311.625 310.83 312.03 311.217 312.299C311.609 312.569 312.12 312.704 312.752 312.704C313.47 312.704 314.04 312.552 314.462 312.247C314.889 311.938 315.102 311.568 315.102 311.137C315.102 310.789 314.98 310.497 314.737 310.262C314.493 310.023 314.118 309.844 313.613 309.727L311.942 309.335C311.023 309.117 310.349 308.78 309.918 308.323C309.491 307.861 309.278 307.285 309.278 306.592C309.278 306.026 309.437 305.526 309.754 305.09C310.076 304.655 310.514 304.313 311.067 304.065C311.624 303.817 312.255 303.693 312.96 303.693C313.953 303.693 314.732 303.911 315.298 304.346C315.868 304.781 316.273 305.356 316.513 306.07Z" fill="#687281"/>
<rect x="62.6129" y="30.6129" width="212.774" height="151.774" rx="9.194" fill="white" stroke="#BEBEBE" stroke-width="1.22587"/>
<rect x="84.7502" y="70.4583" width="169.549" height="99.0619" rx="6.34646" fill="white" stroke="#BEBEBE" stroke-width="0.846194"/>
<path d="M62.2615 39.3897C62.2615 34.6505 66.1033 30.8086 70.8425 30.8086H268.207C272.608 30.8086 276.175 34.376 276.175 38.7767V55.3259H62.2615V39.3897Z" fill="#9E0302"/>
<path d="M139.798 142.362C141.33 133.985 149.666 117.538 170.751 118.764C191.836 119.99 198.333 135.007 198.946 142.362" stroke="#BCBCBC" stroke-width="1.8388" stroke-linecap="round"/>
<rect x="125.394" y="14.2598" width="3.06467" height="31.8725" rx="1.53233" fill="#CECECE"/>
<rect x="209.979" y="14.2598" width="3.06467" height="31.8725" rx="1.53233" fill="#C8C8C8"/>
<circle cx="136.12" cy="101.601" r="4.597" fill="black"/>
<circle cx="202.597" cy="101.597" r="4.597" fill="black"/>
<rect x="158.489" y="188.945" width="1.8388" height="12.8716" fill="#F7E3E3"/>
<rect x="165.844" y="194.461" width="1.8388" height="12.8716" transform="rotate(88.7029 165.844 194.461)" fill="#F7E3E3"/>
<rect x="158.489" y="2" width="1.8388" height="12.8716" fill="#F7E3E3"/>
<rect x="165.844" y="7.51562" width="1.8388" height="12.8716" transform="rotate(88.7029 165.844 7.51562)" fill="#F7E3E3"/>
<rect x="49.9996" y="2" width="1.8388" height="12.8716" fill="#F7E3E3"/>
<rect x="57.3547" y="7.51562" width="1.8388" height="12.8716" transform="rotate(88.7029 57.3547 7.51562)" fill="#F7E3E3"/>
<rect x="254.513" y="230" width="1.8388" height="12.8716" fill="#F7E3E3"/>
<rect x="261.868" y="235.516" width="1.8388" height="12.8716" transform="rotate(88.7029 261.868 235.516)" fill="#F7E3E3"/>
<circle cx="4.597" cy="92.597" r="4.597" fill="#FFDDDD"/>
<circle cx="323.597" cy="4.597" r="4.597" fill="#FFDDDD"/>
<ellipse cx="177" cy="234.5" rx="144" ry="9.5" fill="#F7E3E3"/>
<path d="M47 321H328" stroke="#BBBBBB" stroke-width="0.25" stroke-linecap="round"/>
</svg>
