<svg width="234" height="221" viewBox="0 0 234 221" fill="none" xmlns="http://www.w3.org/2000/svg">
<path d="M233.592 152.977H0V153.093H233.592V152.977Z" fill="#EBEBEB"/>
<path d="M210.187 160.498H194.713V160.615H210.187V160.498Z" fill="#EBEBEB"/>
<path d="M154.741 161.764H150.68V161.88H154.741V161.764Z" fill="#EBEBEB"/>
<path d="M194.245 156.16H185.279V156.277H194.245V156.16Z" fill="#EBEBEB"/>
<path d="M44.6872 156.945H24.5081V157.062H44.6872V156.945Z" fill="#EBEBEB"/>
<path d="M51.8055 156.945H48.8468V157.062H51.8055V156.945Z" fill="#EBEBEB"/>
<path d="M105.185 158.918H61.4211V159.035H105.185V158.918Z" fill="#EBEBEB"/>
<path d="M110.729 132.142H20.5165C19.0463 132.142 17.8499 130.946 17.8499 129.476V2.66669C17.8499 1.19646 19.0463 0 20.5165 0H110.729C112.199 0 113.396 1.19646 113.396 2.66669V129.476C113.396 130.946 112.199 132.142 110.729 132.142ZM20.5165 0.117263C19.1103 0.117263 17.9666 1.26093 17.9666 2.66716V129.476C17.9666 130.882 19.1103 132.026 20.5165 132.026H110.729C112.135 132.026 113.279 130.882 113.279 129.476V2.66669C113.279 1.26093 112.135 0.116796 110.729 0.116796L20.5165 0.117263Z" fill="#EBEBEB"/>
<path d="M211.779 132.142H121.567C120.097 132.142 118.901 130.946 118.901 129.476V2.66669C118.901 1.19646 120.097 0 121.567 0H211.779C213.25 0 214.446 1.19646 214.446 2.66669V129.476C214.447 130.946 213.25 132.142 211.779 132.142ZM121.567 0.117263C120.161 0.117263 119.018 1.26093 119.018 2.66716V129.476C119.018 130.882 120.161 132.026 121.567 132.026H211.779C213.186 132.026 214.329 130.882 214.329 129.476V2.66669C214.329 1.26093 213.186 0.116796 211.779 0.116796L121.567 0.117263Z" fill="#EBEBEB"/>
<path d="M85.4955 17.3457H41.2657V116.984H85.4955V17.3457Z" fill="#F5F5F5"/>
<path d="M83.827 115.114L83.827 19.2129L42.9344 19.2129L42.9344 115.114L83.827 115.114Z" fill="#FAFAFA"/>
<path d="M63.851 18.7344H62.911V116.05H63.851V18.7344Z" fill="#F5F5F5"/>
<path d="M86.5167 16.0488H40.2454V20.738H86.5167V16.0488Z" fill="#F5F5F5"/>
<path d="M86.5168 21.2578H40.2455V21.8138H86.5168V21.2578Z" fill="#F5F5F5"/>
<path d="M86.5168 22.5195H40.2455V23.0755H86.5168V22.5195Z" fill="#F5F5F5"/>
<path d="M86.5168 23.7812H40.2455V24.3372H86.5168V23.7812Z" fill="#F5F5F5"/>
<path d="M86.5168 25.041H40.2455V25.597H86.5168V25.041Z" fill="#F5F5F5"/>
<path d="M86.5168 26.3027H40.2455V26.8582H86.5168V26.3027Z" fill="#F5F5F5"/>
<path d="M86.5168 27.5645H40.2455V28.1199H86.5168V27.5645Z" fill="#F5F5F5"/>
<path d="M86.5168 28.8262H40.2455V29.3817H86.5168V28.8262Z" fill="#F5F5F5"/>
<path d="M86.5168 30.0879H40.2455V30.6434H86.5168V30.0879Z" fill="#F5F5F5"/>
<path d="M86.5168 31.3496H40.2455V31.9051H86.5168V31.3496Z" fill="#F5F5F5"/>
<path d="M86.5168 32.6094H40.2455V33.1653H86.5168V32.6094Z" fill="#F5F5F5"/>
<path d="M86.5168 33.873H40.2455V34.429H86.5168V33.873Z" fill="#F5F5F5"/>
<path d="M86.5168 35.1328H40.2455V35.6888H86.5168V35.1328Z" fill="#F5F5F5"/>
<path d="M86.5168 36.3945H40.2455V36.9505H86.5168V36.3945Z" fill="#F5F5F5"/>
<path d="M86.5168 37.6582H40.2455V38.2142H86.5168V37.6582Z" fill="#F5F5F5"/>
<path d="M86.5168 38.916H40.2455V39.4715H86.5168V38.916Z" fill="#F5F5F5"/>
<path d="M86.5168 40.1797H40.2455V40.7352H86.5168V40.1797Z" fill="#F5F5F5"/>
<path d="M86.5168 41.4414H40.2455V41.9969H86.5168V41.4414Z" fill="#F5F5F5"/>
<path d="M86.5168 42.7031H40.2455V43.2586H86.5168V42.7031Z" fill="#F5F5F5"/>
<path d="M137.861 17.3457H93.6307V116.984H137.861V17.3457Z" fill="#F5F5F5"/>
<path d="M136.192 115.114L136.192 19.2129L95.2994 19.2129L95.2994 115.114L136.192 115.114Z" fill="#FAFAFA"/>
<path d="M116.216 18.7344H115.276V116.05H116.216V18.7344Z" fill="#F5F5F5"/>
<path d="M138.882 16.0488H92.6104V20.738H138.882V16.0488Z" fill="#F5F5F5"/>
<path d="M138.882 21.2578H92.6105V21.8138H138.882V21.2578Z" fill="#F5F5F5"/>
<path d="M138.882 22.5195H92.6105V23.0755H138.882V22.5195Z" fill="#F5F5F5"/>
<path d="M138.882 23.7812H92.6105V24.3372H138.882V23.7812Z" fill="#F5F5F5"/>
<path d="M138.882 25.041H92.6105V25.597H138.882V25.041Z" fill="#F5F5F5"/>
<path d="M138.882 26.3027H92.6105V26.8582H138.882V26.3027Z" fill="#F5F5F5"/>
<path d="M138.882 27.5645H92.6105V28.1199H138.882V27.5645Z" fill="#F5F5F5"/>
<path d="M138.882 28.8262H92.6105V29.3817H138.882V28.8262Z" fill="#F5F5F5"/>
<path d="M138.882 30.0879H92.6105V30.6434H138.882V30.0879Z" fill="#F5F5F5"/>
<path d="M138.882 31.3496H92.6105V31.9051H138.882V31.3496Z" fill="#F5F5F5"/>
<path d="M138.882 32.6094H92.6105V33.1653H138.882V32.6094Z" fill="#F5F5F5"/>
<path d="M138.882 33.873H92.6105V34.429H138.882V33.873Z" fill="#F5F5F5"/>
<path d="M138.882 35.1328H92.6105V35.6888H138.882V35.1328Z" fill="#F5F5F5"/>
<path d="M138.882 36.3945H92.6105V36.9505H138.882V36.3945Z" fill="#F5F5F5"/>
<path d="M138.882 37.6582H92.6105V38.2142H138.882V37.6582Z" fill="#F5F5F5"/>
<path d="M138.882 38.916H92.6105V39.4715H138.882V38.916Z" fill="#F5F5F5"/>
<path d="M138.882 40.1797H92.6105V40.7352H138.882V40.1797Z" fill="#F5F5F5"/>
<path d="M138.882 41.4414H92.6105V41.9969H138.882V41.4414Z" fill="#F5F5F5"/>
<path d="M138.882 42.7031H92.6105V43.2586H138.882V42.7031Z" fill="#F5F5F5"/>
<path d="M190.225 17.3457H145.995V116.984H190.225V17.3457Z" fill="#F5F5F5"/>
<path d="M188.557 115.114L188.557 19.2129L147.664 19.2129V115.114L188.557 115.114Z" fill="#FAFAFA"/>
<path d="M168.58 18.7344H167.641V116.05H168.58V18.7344Z" fill="#F5F5F5"/>
<path d="M191.246 16.0488H144.975V20.738H191.246V16.0488Z" fill="#F5F5F5"/>
<path d="M191.246 21.2578H144.975V21.8138H191.246V21.2578Z" fill="#F5F5F5"/>
<path d="M191.246 22.5195H144.975V23.0755H191.246V22.5195Z" fill="#F5F5F5"/>
<path d="M191.246 23.7812H144.975V24.3372H191.246V23.7812Z" fill="#F5F5F5"/>
<path d="M191.246 25.041H144.975V25.597H191.246V25.041Z" fill="#F5F5F5"/>
<path d="M191.246 26.3027H144.975V26.8582H191.246V26.3027Z" fill="#F5F5F5"/>
<path d="M191.246 27.5645H144.975V28.1199H191.246V27.5645Z" fill="#F5F5F5"/>
<path d="M191.246 28.8262H144.975V29.3817H191.246V28.8262Z" fill="#F5F5F5"/>
<path d="M191.246 30.0879H144.975V30.6434H191.246V30.0879Z" fill="#F5F5F5"/>
<path d="M191.246 31.3496H144.975V31.9051H191.246V31.3496Z" fill="#F5F5F5"/>
<path d="M191.246 32.6094H144.975V33.1653H191.246V32.6094Z" fill="#F5F5F5"/>
<path d="M191.246 33.873H144.975V34.429H191.246V33.873Z" fill="#F5F5F5"/>
<path d="M191.246 35.1328H144.975V35.6888H191.246V35.1328Z" fill="#F5F5F5"/>
<path d="M191.246 36.3945H144.975V36.9505H191.246V36.3945Z" fill="#F5F5F5"/>
<path d="M191.246 37.6582H144.975V38.2142H191.246V37.6582Z" fill="#F5F5F5"/>
<path d="M191.246 38.916H144.975V39.4715H191.246V38.916Z" fill="#F5F5F5"/>
<path d="M191.246 40.1797H144.975V40.7352H191.246V40.1797Z" fill="#F5F5F5"/>
<path d="M191.246 41.4414H144.975V41.9969H191.246V41.4414Z" fill="#F5F5F5"/>
<path d="M191.246 42.7031H144.975V43.2586H191.246V42.7031Z" fill="#F5F5F5"/>
<path d="M155.034 106.318H211.162C211.162 108.379 209.54 110.071 207.481 110.164C201.449 110.436 192.17 111.39 189.227 114.728C183.742 120.949 184.273 142.803 190.844 147.865C192.904 149.452 198.91 152.603 198.91 152.603H167.285C167.285 152.603 172.897 149.388 174.847 147.865C181.38 142.762 181.571 120.92 176.06 114.728C173.232 111.55 164.535 110.524 158.699 110.2C156.641 110.086 155.034 108.38 155.034 106.318Z" fill="#F5F5F5"/>
<path d="M204.209 110.367C198.508 110.824 191.675 111.951 189.227 114.727C188.503 115.549 187.887 116.649 187.372 117.942H177.945C177.416 116.648 176.79 115.547 176.06 114.727C173.602 111.966 166.713 110.83 161.121 110.367H204.209Z" fill="#E6E6E6"/>
<path d="M178.943 106.341L179.706 97.6172H168.642L167.879 106.341H178.943Z" fill="#EBEBEB"/>
<path d="M178.943 106.341L179.706 97.6172H180.302L179.538 106.341H178.943Z" fill="#E0E0E0"/>
<path d="M177.892 105.453L178.5 98.5078H169.692L169.085 105.453H177.892Z" fill="#F0F0F0"/>
<path d="M177.218 104.882L177.725 99.0801H170.367L169.86 104.882H177.218Z" fill="#FAFAFA"/>
<path d="M182.532 106.316H193.646L192.413 92.2207H181.298L182.532 106.316Z" fill="#E6E6E6"/>
<path d="M182.532 106.316H182.001L180.768 92.2207H181.298L182.532 106.316Z" fill="#E0E0E0"/>
<path d="M183.539 104.879H192.387L191.405 93.6582H182.557L183.539 104.879Z" fill="#F0F0F0"/>
<path d="M184.186 103.954H191.578L190.758 94.5801H183.367L184.186 103.954Z" fill="#FAFAFA"/>
<path d="M187.92 98.8004C187.417 99.3026 186.604 99.3026 186.101 98.8004C185.599 98.2982 185.599 97.4844 186.101 96.9821C186.604 96.4799 187.417 96.4799 187.92 96.9821C188.422 97.4844 188.422 98.2982 187.92 98.8004Z" fill="#EBEBEB"/>
<path d="M187.375 100.373C187.743 100.006 188.339 100.006 188.707 100.373C189.3 100.967 188.88 101.981 188.041 101.981C187.202 101.981 186.782 100.967 187.375 100.373Z" fill="#F0F0F0"/>
<path d="M77.7649 149.718H88.5896L82.8988 103.371C82.6577 101.409 80.8721 99.8184 78.91 99.8184H75.1898H31.6776L38.6018 149.718H77.7649Z" fill="#F5F5F5"/>
<path d="M43.433 149.718H32.6084L26.9176 103.371C26.6765 101.409 28.072 99.8184 30.0337 99.8184H33.7539C35.7161 99.8184 37.5016 101.409 37.7422 103.371L43.433 149.718Z" fill="#F0F0F0"/>
<path d="M47.4212 149.662L45.4599 127.245C45.3721 126.244 44.5989 125.439 43.6015 125.312L42.7951 125.209C41.4576 125.038 40.42 123.959 40.3022 122.616L39.9444 118.528C39.7977 116.853 41.1184 115.412 42.7998 115.412H24.7095C23.0276 115.412 21.7073 116.853 21.854 118.528L22.2119 122.616C22.3292 123.959 23.3673 125.038 24.7043 125.209L25.5107 125.312C26.5077 125.439 27.2813 126.244 27.3687 127.245L29.3299 149.662C29.4729 151.297 30.8413 152.551 32.482 152.551H50.5728C48.9325 152.55 47.5641 151.297 47.4212 149.662Z" fill="#E6E6E6"/>
<path d="M97.2059 121.636C97.5138 118.115 100.462 115.414 103.995 115.414H95.2418H88.2458C84.712 115.414 81.7645 118.115 81.4562 121.636L79.9014 139.406H95.6511L97.2059 121.636Z" fill="#E6E6E6"/>
<path d="M110.991 115.414H103.995C100.461 115.414 97.5138 118.115 97.2055 121.636L95.6507 139.406H58.1404L56.5856 121.636C56.2778 118.115 53.3298 115.414 49.796 115.414H42.8004C41.119 115.414 39.7983 116.855 39.945 118.53L40.3028 122.618C40.4201 123.961 41.4582 125.04 42.7957 125.211L43.6021 125.314C44.5991 125.441 45.3727 126.246 45.4601 127.247L47.4213 149.664C47.5643 151.299 48.9327 152.553 50.5734 152.553H103.219C104.859 152.553 106.228 151.299 106.371 149.664L108.332 127.247C108.42 126.246 109.193 125.441 110.19 125.314L110.997 125.211C112.334 125.04 113.372 123.961 113.49 122.618L113.847 118.53C113.993 116.855 112.673 115.414 110.991 115.414Z" fill="#F0F0F0"/>
<path d="M116.796 174.074C166.823 174.074 207.378 171.706 207.378 168.784C207.378 165.863 166.823 163.494 116.796 163.494C66.7691 163.494 26.2142 165.863 26.2142 168.784C26.2142 171.706 66.7691 174.074 116.796 174.074Z" fill="#F5F5F5"/>
<path d="M177.553 134.838H78.9358C77.8118 134.838 76.9008 133.927 76.9008 132.803V42.1601C76.9008 41.036 77.8118 40.125 78.9358 40.125H177.553C178.677 40.125 179.588 41.036 179.588 42.1601V132.803C179.588 133.927 178.677 134.838 177.553 134.838Z" fill="#FF947A"/>
<path opacity="0.4" d="M177.553 134.838H78.9358C77.8118 134.838 76.9008 133.927 76.9008 132.803V42.1601C76.9008 41.036 77.8118 40.125 78.9358 40.125H177.553C178.677 40.125 179.588 41.036 179.588 42.1601V132.803C179.588 133.927 178.677 134.838 177.553 134.838Z" fill="white"/>
<path opacity="0.6" d="M78.0297 59.168V132.379C78.0297 133.112 78.6258 133.708 79.3588 133.708H177.131C177.864 133.708 178.46 133.112 178.46 132.379V59.168H78.0297Z" fill="white"/>
<path d="M132.715 54.9613H96.2968C95.6026 54.9613 95.04 54.5838 95.04 54.1186V46.6435C95.04 46.1778 95.6026 45.8008 96.2968 45.8008H132.715C133.409 45.8008 133.972 46.1782 133.972 46.6435V54.1186C133.971 54.5838 133.409 54.9613 132.715 54.9613Z" fill="#9E0302"/>
<path d="M90.6384 46.252H83.2719V53.6185H90.6384V46.252Z" fill="white" stroke="#ECE3E4" stroke-width="0.467184" stroke-miterlimit="10" stroke-linecap="round" stroke-linejoin="round"/>
<path opacity="0.6" d="M170.086 73.6137H95.9868C95.4986 73.6137 95.1029 73.218 95.1029 72.7302V64.8937C95.1029 64.4055 95.4986 64.0098 95.9868 64.0098H170.086C170.574 64.0098 170.97 64.4055 170.97 64.8937V72.7302C170.969 73.218 170.574 73.6137 170.086 73.6137Z" fill="#9E0302"/>
<path opacity="0.6" d="M90.6384 65.4395H83.2719V72.806H90.6384V65.4395Z" fill="white" stroke="#DFE1E7" stroke-width="0.467184" stroke-miterlimit="10" stroke-linecap="round" stroke-linejoin="round"/>
<path d="M99.4322 67.6157H98.1838V67.291H101.057V67.6157H99.8082V70.844H99.4326V67.6157H99.4322Z" fill="white"/>
<path d="M103.707 69.8946H101.728L101.301 70.844H100.91L102.535 67.291H102.905L104.53 70.844H104.134L103.707 69.8946ZM103.571 69.5905L102.718 67.6821L101.865 69.5905H103.571Z" fill="white"/>
<path d="M104.781 70.4138L104.928 70.1242C105.182 70.3732 105.633 70.5558 106.101 70.5558C106.765 70.5558 107.055 70.2765 107.055 69.9265C107.055 68.952 104.867 69.5509 104.867 68.2363C104.867 67.7135 105.273 67.2617 106.176 67.2617C106.577 67.2617 106.993 67.378 107.277 67.5761L107.151 67.8756C106.846 67.6775 106.491 67.5813 106.176 67.5813C105.526 67.5813 105.237 67.8709 105.237 68.226C105.237 69.2005 107.425 68.6119 107.425 69.906C107.425 70.4288 107.009 70.8754 106.101 70.8754C105.567 70.8754 105.045 70.6876 104.781 70.4138Z" fill="white"/>
<path d="M109.346 69.1742L108.62 69.9101V70.844H108.244V67.291H108.62V69.4382L110.706 67.291H111.137L109.599 68.9L111.243 70.844H110.797L109.346 69.1742Z" fill="white"/>
<path d="M112.87 69.0683C112.87 67.9368 113.464 67.2617 114.287 67.2617C115.109 67.2617 115.708 67.9368 115.708 69.0683C115.708 70.2003 115.109 70.8754 114.287 70.8754C113.464 70.8754 112.87 70.2003 112.87 69.0683ZM115.332 69.0683C115.332 68.1195 114.906 67.5967 114.287 67.5967C113.667 67.5967 113.241 68.1195 113.241 69.0683C113.241 70.0176 113.668 70.5404 114.287 70.5404C114.906 70.5404 115.332 70.0176 115.332 69.0683Z" fill="white"/>
<path d="M117.207 67.291V70.844H116.842V67.6157H116.004V67.291H117.207Z" fill="white"/>
<path d="M167.082 66.2715H163.51V71.1265H167.082V66.2715Z" stroke="white" stroke-width="0.467184" stroke-miterlimit="10"/>
<path d="M168.253 67.1074L165.854 69.5629" stroke="white" stroke-width="0.467184" stroke-miterlimit="10"/>
<path opacity="0.6" d="M170.313 86.8251H96.2141C95.7259 86.8251 95.3307 86.4294 95.3307 85.9412V78.1046C95.3307 77.6164 95.7264 77.2207 96.2141 77.2207H170.313C170.802 77.2207 171.197 77.6164 171.197 78.1046V85.9412C171.197 86.4294 170.802 86.8251 170.313 86.8251Z" fill="#9E0302"/>
<path opacity="0.6" d="M90.8663 78.6504H83.4998V86.017H90.8663V78.6504Z" fill="white" stroke="#DFE1E7" stroke-width="0.467184" stroke-miterlimit="10" stroke-linecap="round" stroke-linejoin="round"/>
<path d="M99.4322 80.8286H98.1838V80.5039H101.057V80.8286H99.8082V84.0564H99.4326V80.8286H99.4322Z" fill="white"/>
<path d="M103.707 83.106H101.728L101.301 84.0549H100.91L102.535 80.502H102.905L104.53 84.0549H104.134L103.707 83.106ZM103.571 82.801L102.718 80.8925L101.865 82.801H103.571Z" fill="white"/>
<path d="M104.781 83.6248L104.928 83.3351C105.181 83.5841 105.633 83.7668 106.1 83.7668C106.765 83.7668 107.054 83.4874 107.054 83.1375C107.054 82.1629 104.866 82.7614 104.866 81.4472C104.866 80.9244 105.272 80.4727 106.176 80.4727C106.577 80.4727 106.993 80.5895 107.277 80.7871L107.151 81.0865C106.846 80.8885 106.49 80.7922 106.176 80.7922C105.526 80.7922 105.237 81.0819 105.237 81.4369C105.237 82.4115 107.425 81.8228 107.425 83.1169C107.425 83.6397 107.009 84.0863 106.1 84.0863C105.567 84.0863 105.044 83.8985 104.781 83.6248Z" fill="white"/>
<path d="M109.345 82.3852L108.619 83.121V84.0549H108.244V80.502H108.619V82.6491L110.705 80.502H111.136L109.598 82.1109L111.243 84.0549H110.796L109.345 82.3852Z" fill="white"/>
<path d="M112.87 82.2793C112.87 81.1477 113.464 80.4727 114.286 80.4727C115.109 80.4727 115.708 81.1477 115.708 82.2793C115.708 83.4112 115.109 84.0863 114.286 84.0863C113.464 84.0863 112.87 83.4112 112.87 82.2793ZM115.332 82.2793C115.332 81.3304 114.905 80.8076 114.286 80.8076C113.667 80.8076 113.241 81.3304 113.241 82.2793C113.241 83.2286 113.667 83.7514 114.286 83.7514C114.906 83.7518 115.332 83.2286 115.332 82.2793Z" fill="white"/>
<path d="M118.648 83.7313V84.056H116.156V83.7971L117.633 82.3503C118.034 81.9546 118.11 81.7163 118.11 81.4724C118.11 81.0613 117.821 80.8076 117.277 80.8076C116.861 80.8076 116.541 80.9342 116.308 81.2038L116.049 80.98C116.323 80.6553 116.765 80.4727 117.308 80.4727C118.029 80.4727 118.485 80.838 118.485 81.4318C118.485 81.7719 118.378 82.076 117.901 82.5432L116.693 83.7308H118.648V83.7313Z" fill="white"/>
<path d="M167.309 79.4863H163.738V84.3413H167.309V79.4863Z" stroke="white" stroke-width="0.467184" stroke-miterlimit="10"/>
<path d="M168.481 80.3242L166.081 82.7797" stroke="white" stroke-width="0.467184" stroke-miterlimit="10"/>
<path opacity="0.6" d="M170.541 100.036H96.4423C95.9541 100.036 95.5583 99.6403 95.5583 99.1521V91.3156C95.5583 90.8273 95.9541 90.4316 96.4423 90.4316H170.541C171.029 90.4316 171.425 90.8273 171.425 91.3156V99.1521C171.425 99.6403 171.03 100.036 170.541 100.036Z" fill="#9E0302"/>
<path opacity="0.6" d="M91.0943 91.8613H83.7278V99.2279H91.0943V91.8613Z" fill="white" stroke="#DFE1E7" stroke-width="0.467184" stroke-miterlimit="10" stroke-linecap="round" stroke-linejoin="round"/>
<path d="M99.4319 94.0356H98.1831V93.7109H101.056V94.0356H99.8075V97.2639H99.4319V94.0356Z" fill="white"/>
<path d="M103.707 96.315H101.727L101.301 97.2639H100.91L102.534 93.7109H102.905L104.529 97.2639H104.133L103.707 96.315ZM103.57 96.0104L102.717 94.102L101.865 96.0104H103.57Z" fill="white"/>
<path d="M104.78 96.8333L104.927 96.5441C105.181 96.7926 105.633 96.9758 106.1 96.9758C106.765 96.9758 107.054 96.6964 107.054 96.346C107.054 95.3714 104.866 95.9704 104.866 94.6562C104.866 94.1334 105.272 93.6816 106.176 93.6816C106.576 93.6816 106.993 93.7984 107.277 93.9965L107.15 94.296C106.846 94.0979 106.491 94.0017 106.176 94.0017C105.526 94.0017 105.237 94.2909 105.237 94.6464C105.237 95.6209 107.424 95.0318 107.424 96.3264C107.424 96.8492 107.008 97.2958 106.1 97.2958C105.566 97.2958 105.044 97.1075 104.78 96.8333Z" fill="white"/>
<path d="M109.345 95.5942L108.619 96.33V97.2639H108.243V93.7109H108.619V95.8581L110.705 93.7109H111.136L109.598 95.3199L111.242 97.2639H110.796L109.345 95.5942Z" fill="white"/>
<path d="M112.87 95.4882C112.87 94.3563 113.464 93.6816 114.286 93.6816C115.108 93.6816 115.707 94.3563 115.707 95.4882C115.707 96.6202 115.108 97.2953 114.286 97.2953C113.464 97.2953 112.87 96.6198 112.87 95.4882ZM115.332 95.4882C115.332 94.5394 114.905 94.0166 114.286 94.0166C113.667 94.0166 113.241 94.5394 113.241 95.4882C113.241 96.4376 113.667 96.9599 114.286 96.9599C114.905 96.9599 115.332 96.4376 115.332 95.4882Z" fill="white"/>
<path d="M118.531 96.244C118.531 96.8378 118.1 97.2947 117.241 97.2947C116.729 97.2947 116.237 97.1167 115.962 96.8378L116.14 96.5481C116.368 96.7869 116.779 96.9593 117.241 96.9593C117.83 96.9593 118.155 96.6855 118.155 96.244C118.155 95.8175 117.855 95.5386 117.196 95.5386H116.942V95.2695L117.927 94.0356H116.11V93.7109H118.394V93.9702L117.389 95.234C118.15 95.2746 118.531 95.6754 118.531 96.244Z" fill="white"/>
<path d="M167.538 92.6973H163.966V97.5522H167.538V92.6973Z" stroke="white" stroke-width="0.467184" stroke-miterlimit="10"/>
<path d="M168.709 93.5352L166.31 95.9902" stroke="white" stroke-width="0.467184" stroke-miterlimit="10"/>
<path opacity="0.6" d="M170.769 113.245H96.67C96.1818 113.245 95.7861 112.849 95.7861 112.361V104.525C95.7861 104.036 96.1818 103.641 96.67 103.641H170.769C171.257 103.641 171.653 104.036 171.653 104.525V112.361C171.653 112.85 171.257 113.245 170.769 113.245Z" fill="#9E0302"/>
<path opacity="0.6" d="M91.3221 105.07H83.9556V112.437H91.3221V105.07Z" fill="white" stroke="#DFE1E7" stroke-width="0.467184" stroke-miterlimit="10" stroke-linecap="round" stroke-linejoin="round"/>
<path d="M99.432 107.25H98.1832V106.926H101.056V107.25H99.8076V110.478H99.432V107.25Z" fill="white"/>
<path d="M103.707 109.528H101.728L101.301 110.477H100.91L102.534 106.924H102.905L104.529 110.477H104.133L103.707 109.528ZM103.57 109.223L102.718 107.315L101.865 109.223H103.57Z" fill="white"/>
<path d="M104.78 110.046L104.927 109.757C105.182 110.006 105.633 110.189 106.1 110.189C106.765 110.189 107.054 109.909 107.054 109.559C107.054 108.584 104.866 109.183 104.866 107.869C104.866 107.346 105.272 106.895 106.176 106.895C106.577 106.895 106.993 107.011 107.277 107.209L107.15 107.509C106.846 107.311 106.491 107.215 106.176 107.215C105.526 107.215 105.237 107.504 105.237 107.859C105.237 108.833 107.425 108.245 107.425 109.539C107.425 110.062 107.008 110.509 106.1 110.509C105.567 110.508 105.044 110.32 104.78 110.046Z" fill="white"/>
<path d="M109.345 108.807L108.619 109.543V110.477H108.243V106.924H108.619V109.071L110.705 106.924H111.136L109.598 108.532L111.242 110.476H110.796L109.345 108.807Z" fill="white"/>
<path d="M112.87 108.701C112.87 107.569 113.464 106.895 114.286 106.895C115.108 106.895 115.707 107.569 115.707 108.701C115.707 109.833 115.108 110.508 114.286 110.508C113.464 110.508 112.87 109.833 112.87 108.701ZM115.332 108.701C115.332 107.752 114.905 107.23 114.286 107.23C113.667 107.23 113.241 107.752 113.241 108.701C113.241 109.65 113.667 110.173 114.286 110.173C114.905 110.173 115.332 109.65 115.332 108.701Z" fill="white"/>
<path d="M119.252 109.544H118.541V110.478H118.176V109.544H116.171V109.281L118.054 106.926H118.46L116.643 109.22H118.186V108.397H118.541V109.22H119.252V109.544Z" fill="white"/>
<path d="M167.765 105.906H164.193V110.761H167.765V105.906Z" stroke="white" stroke-width="0.467184" stroke-miterlimit="10"/>
<path d="M168.937 106.742L166.537 109.198" stroke="white" stroke-width="0.467184" stroke-miterlimit="10"/>
<path opacity="0.6" d="M170.997 126.458H96.898C96.4097 126.458 96.014 126.062 96.014 125.574V117.737C96.014 117.249 96.4097 116.854 96.898 116.854H170.997C171.485 116.854 171.881 117.249 171.881 117.737V125.574C171.881 126.062 171.485 126.458 170.997 126.458Z" fill="#9E0302"/>
<path opacity="0.6" d="M91.5497 118.283H84.1831V125.65H91.5497V118.283Z" fill="white" stroke="#DFE1E7" stroke-width="0.467184" stroke-miterlimit="10" stroke-linecap="round" stroke-linejoin="round"/>
<path d="M99.4318 120.463H98.183V120.139H101.056V120.463H99.8074V123.692H99.4318V120.463Z" fill="white"/>
<path d="M103.707 122.743H101.727L101.301 123.692H100.91L102.534 120.139H102.905L104.529 123.692H104.133L103.707 122.743ZM103.57 122.438L102.717 120.53L101.865 122.438H103.57Z" fill="white"/>
<path d="M104.78 123.261L104.927 122.972C105.181 123.22 105.633 123.403 106.1 123.403C106.765 123.403 107.054 123.124 107.054 122.774C107.054 121.799 104.866 122.398 104.866 121.084C104.866 120.561 105.272 120.109 106.176 120.109C106.576 120.109 106.993 120.226 107.277 120.424L107.15 120.724C106.846 120.526 106.49 120.429 106.176 120.429C105.526 120.429 105.236 120.719 105.236 121.074C105.236 122.049 107.424 121.46 107.424 122.754C107.424 123.277 107.008 123.724 106.1 123.724C105.566 123.724 105.044 123.535 104.78 123.261Z" fill="white"/>
<path d="M109.344 122.022L108.618 122.758V123.692H108.243V120.139H108.618V122.286L110.704 120.139H111.136L109.598 121.748L111.242 123.692H110.795L109.344 122.022Z" fill="white"/>
<path d="M112.87 121.916C112.87 120.784 113.464 120.109 114.286 120.109C115.108 120.109 115.707 120.784 115.707 121.916C115.707 123.048 115.108 123.723 114.286 123.723C113.464 123.724 112.87 123.048 112.87 121.916ZM115.331 121.916C115.331 120.967 114.905 120.444 114.286 120.444C113.666 120.444 113.24 120.967 113.24 121.916C113.24 122.865 113.667 123.388 114.286 123.388C114.905 123.388 115.331 122.866 115.331 121.916Z" fill="white"/>
<path d="M118.642 122.646C118.642 123.25 118.221 123.722 117.353 123.722C116.84 123.722 116.353 123.544 116.079 123.266L116.257 122.976C116.485 123.215 116.891 123.387 117.348 123.387C117.952 123.387 118.271 123.093 118.271 122.661C118.271 122.205 117.987 121.92 117.084 121.92H116.328L116.51 120.139H118.454V120.463H116.83L116.708 121.595H117.165C118.236 121.595 118.642 122.017 118.642 122.646Z" fill="white"/>
<path d="M167.993 119.119H164.421V123.974H167.993V119.119Z" stroke="white" stroke-width="0.467184" stroke-miterlimit="10"/>
<path d="M169.165 119.955L166.765 122.41" stroke="white" stroke-width="0.467184" stroke-miterlimit="10"/>
<path d="M167.433 53.8162H144.024C142.267 53.8162 140.842 52.0219 140.842 49.8085C140.842 47.5951 142.267 45.8008 144.024 45.8008H167.433C169.19 45.8008 170.614 47.5951 170.614 49.8085C170.614 52.0219 169.19 53.8162 167.433 53.8162Z" fill="white"/>
<path d="M165.492 48.492C166.015 49.0153 166.015 49.8632 165.492 50.386C164.968 50.9088 164.12 50.9093 163.598 50.386C163.074 49.8628 163.074 49.0148 163.598 48.492C164.121 47.9688 164.969 47.9688 165.492 48.492Z" stroke="#9E0302" stroke-width="0.467184" stroke-miterlimit="10" stroke-linecap="round" stroke-linejoin="round"/>
<path d="M165.492 50.4492L167.386 52.3432" stroke="#9E0302" stroke-width="0.467184" stroke-miterlimit="10" stroke-linecap="round" stroke-linejoin="round"/>
<path d="M183.109 157.759C183.109 157.759 180.795 152.711 183.439 147.734C186.083 142.757 186.849 141.585 185.164 140.565C183.479 139.545 182.706 144.546 182.706 144.546C182.706 144.546 181.285 141.106 182.458 137.505C183.631 133.905 184.367 128.041 182.765 127.411C181.163 126.782 182.459 134.727 181.069 137.435C181.069 137.435 179.901 134.42 179.709 131.529C179.517 128.637 179.817 124.019 178.552 122.834C177.287 121.65 176.477 122.469 177.72 128.851C178.963 135.233 178.954 140.421 178.954 140.421C178.954 140.421 176.208 132.049 174.365 131.805C172.522 131.561 172.525 134.272 174.102 136.624C175.679 138.975 178.722 143.188 179.221 145.355C179.221 145.355 176.207 139.055 173.496 140.986C170.785 142.917 175.855 146.722 178.116 148.098C180.376 149.473 181.945 158.092 181.945 158.092L183.109 157.759Z" fill="#C55D5A"/>
<path opacity="0.2" d="M183.109 157.759C183.109 157.759 180.795 152.711 183.439 147.734C186.083 142.757 186.849 141.585 185.164 140.565C183.479 139.545 182.706 144.546 182.706 144.546C182.706 144.546 181.285 141.106 182.458 137.505C183.631 133.905 184.367 128.041 182.765 127.411C181.163 126.782 182.459 134.727 181.069 137.435C181.069 137.435 179.901 134.42 179.709 131.529C179.517 128.637 179.817 124.019 178.552 122.834C177.287 121.65 176.477 122.469 177.72 128.851C178.963 135.233 178.954 140.421 178.954 140.421C178.954 140.421 176.208 132.049 174.365 131.805C172.522 131.561 172.525 134.272 174.102 136.624C175.679 138.975 178.722 143.188 179.221 145.355C179.221 145.355 176.207 139.055 173.496 140.986C170.785 142.917 175.855 146.722 178.116 148.098C180.376 149.473 181.945 158.092 181.945 158.092L183.109 157.759Z" fill="#C55D5A"/>
<path d="M181.283 159.829C181.283 159.829 183.536 154.746 180.832 149.809C178.129 144.872 177.349 143.711 179.022 142.667C180.695 141.622 181.528 146.611 181.528 146.611C181.528 146.611 182.907 143.15 181.691 139.567C180.475 135.984 179.669 130.131 181.264 129.479C182.858 128.825 181.657 136.789 183.08 139.476C183.08 139.476 184.211 136.444 184.368 133.55C184.525 130.655 184.17 126.042 185.421 124.839C186.671 123.635 187.492 124.443 186.325 130.843C185.158 137.243 185.23 142.43 185.23 142.43C185.23 142.43 187.875 134.018 189.714 133.747C191.554 133.475 191.585 136.186 190.035 138.561C188.486 140.936 185.495 145.194 185.023 147.368C185.023 147.368 187.961 141.024 190.695 142.914C193.429 144.805 188.404 148.685 186.161 150.094C183.917 151.503 182.451 160.145 182.451 160.145L181.283 159.829Z" fill="#C55D5A"/>
<path d="M191.675 156.205H173.062L174.568 169.525H190.168L191.675 156.205Z" fill="#263238"/>
<path d="M46.5115 157.802L48.768 159.129C48.768 159.129 49.8612 157.573 52.1971 155.064V155.06C52.8512 154.368 53.5379 153.602 54.2527 152.78C55.6823 151.14 57.2287 149.267 58.8498 147.253C59.3263 146.66 59.8122 146.052 60.3028 145.436C65.951 138.33 72.0571 129.977 74.3417 124.328C75.0518 122.572 75.3975 121.081 75.2433 119.965C74.7808 116.592 73.468 111.514 71.9684 106.608C69.6885 99.1098 67.1237 92.0039 67.1237 92.0039L60.8213 102.679C60.8213 102.679 62.7555 107.29 64.5168 112.2C66.25 117.022 67.8151 122.137 67.2358 123.469C67.1797 123.6 67.1096 123.754 67.0302 123.917C65.9837 126.085 63.0872 130.995 59.7982 136.419C59.4665 136.966 59.1301 137.517 58.7938 138.068C57.0278 140.965 55.1918 143.941 53.4912 146.674C52.8278 147.748 52.1831 148.786 51.5711 149.767C48.6745 154.424 46.5115 157.802 46.5115 157.802Z" fill="#B97964"/>
<path opacity="0.2" d="M60.4315 145.435C57.4508 149.181 54.587 152.583 52.4566 155.059C52.153 153.536 51.8446 151.732 51.6017 149.765C54.0637 145.813 57.0771 140.936 59.8148 136.418C59.791 138.81 59.8797 142.347 60.4315 145.435Z" fill="black"/>
<path d="M49.1838 114.544C49.964 119.865 51.0759 124.687 51.8 127.56C52.2345 129.284 52.5288 130.302 52.5288 130.302C52.4868 135.67 52.9166 141.421 53.4912 146.672C53.7295 148.812 53.9864 150.868 54.2527 152.779C55.2338 159.852 56.2663 164.93 56.2663 164.93L58.9526 164.58L58.8498 147.252L58.7938 138.067L58.719 125.57L58.691 123.393L58.5602 113.89L58.3686 99.8746L49.0249 95.6699C47.7729 100.996 48.2401 108.134 49.1838 114.544Z" fill="#B97964"/>
<path opacity="0.2" d="M74.1869 114.632C71.7996 116.282 68.5761 117.272 66.3709 117.805C65.8617 116.062 65.203 114.104 64.5162 112.198C62.7549 107.288 60.8208 102.677 60.8208 102.677L67.1231 92.002C67.1231 92.002 69.688 99.1078 71.9678 106.606C72.8041 109.334 73.5796 112.119 74.1869 114.632Z" fill="black"/>
<path opacity="0.2" d="M58.639 119.772C55.1398 119.679 52.2759 119.445 49.954 119.146C49.6831 117.684 49.4168 116.137 49.1832 114.544C48.2395 108.134 47.7723 100.996 49.0243 95.6699L58.368 99.8746L58.5596 113.89L58.639 119.772Z" fill="black"/>
<path d="M74.6388 113.704C68.7943 117.138 51.6034 118.594 51.6034 118.594L48.7909 110.69L49.0974 118.508H48.2644C48.2644 118.508 41.9817 97.2543 50.3279 83.3219L65.2778 82.168L66.913 89.8672C66.913 89.8672 71.1256 100.903 74.6388 113.704Z" fill="#687281"/>
<path d="M63.6772 168.374C63.2362 168.11 62.7503 167.929 62.2439 167.839C62.2439 167.839 60.5929 166.609 59.2829 162.385L57.3179 162.16C56.6363 162.094 55.986 162.46 55.6898 163.078C55.6482 163.162 55.6192 163.251 55.6043 163.344C55.5725 163.821 55.5716 164.3 55.6015 164.777C55.6183 166.267 56.248 169.528 56.248 169.528L56.5905 169.479L56.3036 166.48C56.2107 165.461 57.1534 166.538 57.5295 167.596C57.9061 168.653 58.541 169.746 60.7667 169.486C63.3614 169.169 64.4205 168.916 63.6772 168.374Z" fill="#2E353A"/>
<path d="M55.1965 40.6069C55.1965 40.6069 58.9321 38.5303 61.9786 40.0757C63.3825 40.7882 63.8764 42.6041 64.1725 44.0202C64.586 45.9996 64.6514 48.0314 64.9331 50.0301C65.0523 50.8747 65.2592 51.6993 65.6493 52.4627C66.1679 53.4774 67.2261 54.4921 67.0158 55.7316C66.8299 56.8285 65.7101 57.4854 64.7332 57.7858C62.1408 58.5823 59.2073 58.1408 56.5285 58.3104C54.3729 58.4468 52.2934 59.1738 50.1322 59.2261C49.5188 59.2411 48.8774 59.1883 48.3509 58.8734C46.27 57.6307 47.1768 54.4337 47.8515 52.6603C48.4214 51.1611 48.001 49.6072 48.1846 48.0333C48.3453 46.656 48.6167 45.2652 49.1582 43.9823C50.2383 41.4212 52.406 40.0641 55.1965 40.6069Z" fill="#263238"/>
<path d="M58.7401 160.887C58.7401 160.887 59.4409 162.799 60.3752 164.902C61.3096 167.004 62.244 167.839 62.244 167.839C62.244 167.839 60.621 168.366 59.745 167.348C58.869 166.331 57.3708 162.655 55.6903 163.078C55.6903 163.078 55.8132 162.639 56.065 162.223C56.3168 161.807 58.7401 160.887 58.7401 160.887Z" fill="#B97964"/>
<path d="M47.2162 166.711C47.1218 166.206 46.9354 165.722 46.6668 165.284C46.6668 165.284 46.4939 163.232 48.7888 159.452L47.6554 157.832C47.2531 157.277 46.5477 157.033 45.8894 157.22C45.7988 157.245 45.7128 157.283 45.6334 157.333C45.255 157.626 44.8957 157.942 44.5584 158.281C43.454 159.281 41.4292 161.913 41.4292 161.913L41.6922 162.137L43.7483 159.934C44.4495 159.19 44.2678 160.609 43.7249 161.592C43.1821 162.575 42.785 163.775 44.4547 165.269C46.4117 167.002 47.3036 167.627 47.2162 166.711Z" fill="#2E353A"/>
<path d="M49.5516 158.054C49.5516 158.054 48.5836 159.846 47.6282 161.939C46.6728 164.032 46.6672 165.285 46.6672 165.285C46.6672 165.285 45.197 164.419 45.3787 163.089C45.5605 161.758 47.3194 158.2 45.8898 157.222C45.8898 157.222 46.3 157.024 46.7784 156.936C47.2563 156.848 49.5516 158.054 49.5516 158.054Z" fill="#B97964"/>
<path d="M50.1938 81.7936L50.1088 84.0492L65.5595 83.4489L65.6599 80.7812L50.1938 81.7936Z" fill="#263238"/>
<path opacity="0.2" d="M50.1938 81.7936L50.1088 84.0492L65.5595 83.4489L65.6599 80.7812L50.1938 81.7936Z" fill="white"/>
<path d="M55.4048 81.0366L54.6392 81.0469L54.6914 84.9465L55.4571 84.9363L55.4048 81.0366Z" fill="#263238"/>
<path d="M64.8513 80.3609L64.0857 80.3711L64.1376 84.2708L64.9032 84.2606L64.8513 80.3609Z" fill="#263238"/>
<path d="M61.8517 81.1847C61.6667 81.0128 61.4172 80.9231 61.1631 80.9445L59.3383 81.0884C58.8659 81.1258 58.5067 81.5112 58.5034 81.985L58.4945 83.1497C58.4927 83.4029 58.5982 83.6472 58.7837 83.8196C58.95 83.9742 59.1691 84.0607 59.3948 84.0625C59.4214 84.0625 59.4476 84.0616 59.4738 84.0593L61.2986 83.9116C61.77 83.8738 62.1278 83.4884 62.1316 83.0156L62.1404 81.8546C62.1418 81.6014 62.0367 81.3575 61.8517 81.1847ZM61.2607 83.4463L59.4359 83.594C59.3107 83.6047 59.1925 83.5631 59.1014 83.4776C59.0103 83.3931 58.9603 83.2777 58.9617 83.1529L58.9706 81.9882C58.9725 81.7589 59.1463 81.572 59.3752 81.5538L61.2 81.4099C61.2131 81.4089 61.2262 81.4085 61.2388 81.4085C61.3486 81.4094 61.4518 81.4505 61.5336 81.5267C61.6247 81.6112 61.6742 81.7266 61.6733 81.8514L61.6719 82.0279C61.648 82.0237 61.6251 82.0167 61.6004 82.0186L61.0893 82.0541C60.9192 82.0658 60.7898 82.2148 60.8015 82.3849C60.8132 82.5549 60.9622 82.6843 61.1323 82.6727L61.6434 82.6372C61.6522 82.6367 61.6588 82.6316 61.6672 82.6306L61.6644 83.0128C61.6625 83.2412 61.4892 83.4281 61.2607 83.4463Z" fill="white"/>
<path d="M45.9962 62.0375C46.3284 62.8822 46.1929 63.2046 46.4662 63.9614C46.7689 64.772 47.0474 65.5339 47.2964 66.2567C47.8972 67.9563 48.3658 69.4261 48.7419 70.73C49.8944 74.759 50.0897 82.504 50.0897 82.504L65.6362 81.4164C66.7149 67.0056 64.2421 59.889 64.2421 59.889C64.2421 59.889 63.8515 59.8549 63.2264 59.8109C62.0398 59.7278 60.0033 59.6058 58.1477 59.6203C55.95 59.6885 53.7669 59.8988 51.6038 60.2403C50.1336 60.4599 47.7799 60.8434 45.9962 62.0375Z" fill="#9E0302"/>
<path opacity="0.2" d="M61.1395 72.4418C61.1395 72.4418 55.218 79.4202 50.0757 82.0574C50.0121 80.3601 49.7276 74.1821 48.7428 70.7305C48.476 69.799 48.1597 68.7819 47.7804 67.6597L47.4015 64.709C47.4015 64.709 49.4431 67.9681 49.7426 70.8193C49.7426 70.8193 56.5807 70.3638 60.6494 67.9732L61.1395 72.4418Z" fill="black"/>
<path d="M57.6623 62.6853C54.015 62.0289 52.9918 60.404 52.9918 60.404C55.4329 58.325 53.6917 54.418 53.6917 54.418L58.0682 55.4682C57.915 56.1923 57.8342 56.8025 57.801 57.3197C57.631 59.9999 58.8424 60.0877 58.8424 60.0877C59.5441 61.5804 57.6623 62.6853 57.6623 62.6853Z" fill="#ECBFB9"/>
<path opacity="0.2" d="M58.0681 55.4682C57.9149 56.1923 57.8341 56.8025 57.8009 57.3197C55.6957 56.7175 53.6915 54.418 53.6915 54.418L58.0681 55.4682Z" fill="black"/>
<path d="M57.7443 42.9418C61.5808 43.2871 62.6305 45.452 62.5563 49.4306C62.4633 54.4028 61.0519 57.8147 56.3502 56.3276C49.9642 54.3089 51.3728 42.3686 57.7443 42.9418Z" fill="#ECBFB9"/>
<path d="M60.0951 48.9941C60.0951 48.9941 60.5366 50.0439 61.0683 50.6858C61.0683 50.6858 60.6931 51.1782 60.0181 51.0287L60.0951 48.9941Z" fill="#D4827D"/>
<path d="M57.7755 48.4668C57.7545 48.7826 57.5666 49.0274 57.3564 49.0134C57.1457 48.9994 56.992 48.7321 57.013 48.4163C57.0341 48.1005 57.2219 47.8557 57.4321 47.8697C57.6428 47.8837 57.7965 48.151 57.7755 48.4668Z" fill="#263238"/>
<path d="M57.3434 47.88L58.0479 47.6562C58.0479 47.6562 57.6676 48.2113 57.3434 47.88Z" fill="#263238"/>
<path d="M61.7054 48.6601C61.6844 48.976 61.4966 49.2208 61.2863 49.2067C61.0756 49.1927 60.9219 48.9255 60.943 48.6097C60.964 48.2939 61.1518 48.0491 61.362 48.0631C61.5727 48.0771 61.7264 48.3443 61.7054 48.6601Z" fill="#263238"/>
<path d="M61.2737 48.0734L61.9782 47.8496C61.9782 47.8496 61.5979 48.4051 61.2737 48.0734Z" fill="#263238"/>
<path d="M57.9751 45.8162C57.9751 45.8162 56.9095 45.5794 56.2592 46.2465" stroke="#263238" stroke-width="0.338569" stroke-miterlimit="10" stroke-linecap="round" stroke-linejoin="round"/>
<path d="M60.7781 45.9032C60.7781 45.9032 61.4784 45.7131 62.2787 46.3559" stroke="#263238" stroke-width="0.338569" stroke-miterlimit="10" stroke-linecap="round" stroke-linejoin="round"/>
<path d="M52.9697 49.0303C52.9697 49.0303 55.0468 46.0394 54.994 43.5815C54.994 43.5815 62.8759 41.1596 62.5568 48.9097C62.5568 48.9097 63.9158 42.1243 57.3346 41.3787C50.7637 40.634 49.9138 50.2837 53.0608 53.4648C53.0608 53.4648 51.6826 50.9018 52.9697 49.0303Z" fill="#263238"/>
<path d="M53.5233 49.8967C53.5532 49.2767 53.0098 48.1737 51.8498 48.1956C50.6491 48.2185 49.8633 50.6082 52.7673 51.4608C53.1845 51.5832 53.4611 51.1903 53.5233 49.8967Z" fill="#ECBFB9"/>
<path d="M59.7551 52.6409C59.7551 52.6409 58.1434 52.7717 57.6958 51.2852" stroke="#263238" stroke-width="0.330767" stroke-miterlimit="10" stroke-linecap="round" stroke-linejoin="round"/>
<path d="M53.9216 58.5528L57.3437 61.1723L58.3571 58.3496L60.0184 59.6456L61.5278 60.039C62.0469 60.1744 62.3183 60.7472 62.0908 61.2335C61.3003 62.9238 59.539 66.3142 58.102 66.3861C56.6224 66.4599 51.7959 63.1383 49.673 61.6199C49.282 61.3401 49.4137 60.7295 49.8851 60.6351L52.5808 60.0969L53.9216 58.5528Z" fill="#B01010"/>
<path opacity="0.6" d="M53.9216 58.5528L57.3437 61.1723L58.3571 58.3496L60.0184 59.6456L61.5278 60.039C62.0469 60.1744 62.3183 60.7472 62.0908 61.2335C61.3003 62.9238 59.539 66.3142 58.102 66.3861C56.6224 66.4599 51.7959 63.1383 49.673 61.6199C49.282 61.3401 49.4137 60.7295 49.8851 60.6351L52.5808 60.0969L53.9216 58.5528Z" fill="#C55D5A"/>
<path opacity="0.3" d="M52.5807 60.0964L54.8475 63.3396L57.3436 61.5078L59.7552 62.6865L60.0183 59.6456L58.357 58.3496L57.3436 61.1723L53.9215 58.5528L52.5807 60.0964Z" fill="white"/>
<path d="M57.4517 70.3652L58.5916 71.7687L51.0638 74.5218L51.1694 72.106L57.4517 70.3652Z" fill="#ECBFB9"/>
<path d="M54.9944 43.5818C54.9944 43.5818 61.214 42.2344 61.9788 48.1952" stroke="#263238" stroke-width="0.330767" stroke-miterlimit="10" stroke-linecap="round" stroke-linejoin="round"/>
<path d="M47.3534 61.3561C44.5657 61.2598 36.8502 73.0978 39.4893 77.3062C42.1284 81.5146 53.0708 74.9609 53.0708 74.9609L52.1402 71.415C52.1402 71.415 45.3978 72.768 45.0329 72.1074C44.668 71.4468 47.3684 68.0055 47.3684 68.0055C47.3684 68.0055 48.6438 67.2141 48.256 64.6656C47.8682 62.1171 47.3534 61.3561 47.3534 61.3561Z" fill="#9E0302"/>
<path d="M52.646 75.8425L53.5233 75.8056L53.0244 70.8184L51.8373 70.8296L52.646 75.8425Z" fill="#407BFF"/>
<path d="M92.997 54.4062L94.4864 55.4317L88.0388 60.1947L87.4595 57.8466L92.997 54.4062Z" fill="#ECBFB9"/>
<path d="M98.4142 52.8744C98.0424 52.4549 95.8569 50.9473 95.3911 51.2103C94.9253 51.4733 93.2318 54.1909 92.709 54.4782C92.6454 54.5133 93.6845 56.397 93.6845 56.397C93.6845 56.397 94.6782 56.461 95.0813 56.3526C95.4855 56.2447 98.7861 53.2939 98.4142 52.8744Z" fill="#ECBFB9"/>
<path d="M64.2421 59.8879C72.7215 60.4682 78.1431 60.7396 81.2233 59.6184C84.3034 58.4966 89.9863 55.957 89.9863 55.957L91.6167 59.1119C91.6167 59.1119 81.512 64.3846 79.704 64.5827C77.8965 64.7807 64.9592 66.3841 64.9592 66.3841L64.2421 59.8879Z" fill="#9E0302"/>
<path d="M59.214 73.0796C59.1612 73.3123 59.3121 73.522 59.5509 73.5482L63.7957 74.0112C64.0344 74.0373 64.2704 73.8696 64.3227 73.637L66.1844 65.3627C66.2367 65.13 66.0924 64.8623 65.8536 64.8361L61.6088 64.3732C61.3701 64.347 61.1281 64.5727 61.0753 64.8053L59.214 73.0796Z" fill="#263238"/>
<path opacity="0.5" d="M61.5528 64.8026L59.6696 73.1563C59.6163 73.3917 59.7228 73.5674 59.9597 73.5931L63.5589 73.9855C63.8004 74.0117 64.2573 73.9271 64.3106 73.6917L66.1971 65.309C66.2503 65.0735 65.8588 64.8376 65.6178 64.811L62.0186 64.4185C61.7813 64.3928 61.6056 64.5671 61.5528 64.8026Z" fill="white"/>
<path d="M63.0811 70.4224C62.8424 69.9155 61.1708 67.8529 60.6494 67.9739C60.1285 68.0949 57.7375 70.2252 57.1553 70.3537C57.0848 70.3691 57.5506 72.47 57.5506 72.47C57.5506 72.47 58.4859 72.8111 58.9036 72.8214C59.3212 72.8307 63.3194 70.9293 63.0811 70.4224Z" fill="#ECBFB9"/>
<path opacity="0.6" d="M52.646 75.8425L53.5233 75.8056L53.0244 70.8184L51.8373 70.8296L52.646 75.8425Z" fill="white"/>
<path d="M91.8593 60.0948L92.6119 59.6426L89.7878 55.502L88.7506 56.0803L91.8593 60.0948Z" fill="#407BFF"/>
<path opacity="0.6" d="M91.8593 60.0948L92.6119 59.6426L89.7878 55.502L88.7506 56.0803L91.8593 60.0948Z" fill="white"/>
<path d="M97.5272 50.1934H101.694" stroke="white" stroke-width="0.467184" stroke-miterlimit="10"/>
<path d="M99.6104 48.1113V52.2781" stroke="white" stroke-width="0.467184" stroke-miterlimit="10"/>
<path d="M104.78 52.0938H104.326L105.638 48.5212H106.084L107.396 52.0938H106.943L105.875 49.0864H105.847L104.78 52.0938ZM104.947 50.6982H106.775V51.082H104.947V50.6982ZM108.909 52.1496C108.685 52.1496 108.488 52.0932 108.317 51.9804C108.146 51.8664 108.013 51.7059 107.916 51.4989C107.82 51.2907 107.771 51.0448 107.771 50.761C107.771 50.4796 107.82 50.2354 107.916 50.0283C108.013 49.8213 108.147 49.6614 108.319 49.5486C108.491 49.4358 108.69 49.3794 108.916 49.3794C109.09 49.3794 109.228 49.4085 109.329 49.4666C109.431 49.5236 109.509 49.5888 109.563 49.662C109.617 49.7341 109.66 49.7934 109.69 49.8399H109.725V48.5212H110.137V52.0938H109.739V51.6821H109.69C109.66 51.7309 109.617 51.7925 109.561 51.867C109.505 51.9402 109.426 52.0059 109.322 52.0641C109.219 52.1211 109.081 52.1496 108.909 52.1496ZM108.964 51.7798C109.13 51.7798 109.269 51.7367 109.383 51.6507C109.497 51.5634 109.584 51.4431 109.643 51.2896C109.702 51.1349 109.732 50.9564 109.732 50.754C109.732 50.554 109.703 50.379 109.645 50.229C109.587 50.0778 109.501 49.9603 109.387 49.8766C109.273 49.7917 109.132 49.7492 108.964 49.7492C108.79 49.7492 108.645 49.794 108.528 49.8836C108.413 49.9719 108.327 50.0923 108.268 50.2447C108.211 50.3958 108.183 50.5656 108.183 50.754C108.183 50.9448 108.212 51.118 108.27 51.2739C108.329 51.4285 108.417 51.5518 108.532 51.6437C108.648 51.7344 108.792 51.7798 108.964 51.7798ZM111.96 52.1496C111.736 52.1496 111.539 52.0932 111.368 51.9804C111.197 51.8664 111.064 51.7059 110.967 51.4989C110.871 51.2907 110.822 51.0448 110.822 50.761C110.822 50.4796 110.871 50.2354 110.967 50.0283C111.064 49.8213 111.198 49.6614 111.37 49.5486C111.542 49.4358 111.741 49.3794 111.967 49.3794C112.141 49.3794 112.279 49.4085 112.38 49.4666C112.482 49.5236 112.56 49.5888 112.614 49.662C112.668 49.7341 112.711 49.7934 112.741 49.8399H112.776V48.5212H113.188V52.0938H112.79V51.6821H112.741C112.711 51.7309 112.668 51.7925 112.612 51.867C112.556 51.9402 112.477 52.0059 112.373 52.0641C112.27 52.1211 112.132 52.1496 111.96 52.1496ZM112.015 51.7798C112.181 51.7798 112.32 51.7367 112.434 51.6507C112.548 51.5634 112.635 51.4431 112.694 51.2896C112.753 51.1349 112.783 50.9564 112.783 50.754C112.783 50.554 112.754 50.379 112.696 50.229C112.638 50.0778 112.552 49.9603 112.438 49.8766C112.324 49.7917 112.183 49.7492 112.015 49.7492C111.841 49.7492 111.696 49.794 111.579 49.8836C111.464 49.9719 111.378 50.0923 111.319 50.2447C111.262 50.3958 111.234 50.5656 111.234 50.754C111.234 50.9448 111.263 51.118 111.321 51.2739C111.381 51.4285 111.468 51.5518 111.583 51.6437C111.699 51.7344 111.843 51.7798 112.015 51.7798ZM115.241 48.9049V48.5212H117.92V48.9049H116.797V52.0938H116.364V48.9049H115.241ZM118.956 52.1565C118.786 52.1565 118.632 52.1246 118.494 52.0606C118.355 51.9955 118.246 51.9019 118.164 51.7798C118.083 51.6565 118.042 51.5076 118.042 51.3332C118.042 51.1797 118.072 51.0552 118.133 50.9599C118.193 50.8633 118.274 50.7878 118.375 50.7331C118.476 50.6784 118.588 50.6377 118.71 50.611C118.833 50.5831 118.957 50.561 119.082 50.5447C119.245 50.5238 119.377 50.5081 119.478 50.4976C119.58 50.486 119.654 50.4668 119.701 50.44C119.749 50.4133 119.773 50.3668 119.773 50.3005V50.2865C119.773 50.1144 119.725 49.9807 119.631 49.8853C119.538 49.7899 119.397 49.7423 119.207 49.7423C119.011 49.7423 118.857 49.7853 118.745 49.8713C118.633 49.9574 118.555 50.0493 118.51 50.147L118.119 50.0074C118.189 49.8446 118.282 49.7178 118.398 49.6271C118.515 49.5353 118.643 49.4713 118.782 49.4352C118.921 49.398 119.058 49.3794 119.193 49.3794C119.279 49.3794 119.378 49.3899 119.49 49.4108C119.603 49.4306 119.711 49.4719 119.816 49.5347C119.922 49.5975 120.01 49.6923 120.08 49.819C120.149 49.9458 120.184 50.1156 120.184 50.3284V52.0938H119.773V51.7309H119.752C119.724 51.7891 119.677 51.8513 119.612 51.9176C119.547 51.9839 119.46 52.0403 119.352 52.0868C119.244 52.1333 119.112 52.1565 118.956 52.1565ZM119.019 51.7867C119.182 51.7867 119.319 51.7547 119.431 51.6908C119.543 51.6268 119.628 51.5443 119.685 51.4431C119.743 51.3419 119.773 51.2355 119.773 51.1238V50.7471C119.755 50.768 119.717 50.7872 119.657 50.8046C119.599 50.8209 119.532 50.8354 119.455 50.8482C119.379 50.8599 119.306 50.8703 119.233 50.8796C119.163 50.8878 119.105 50.8947 119.061 50.9006C118.954 50.9145 118.854 50.9372 118.761 50.9686C118.669 50.9988 118.594 51.0448 118.537 51.1064C118.482 51.1669 118.454 51.2494 118.454 51.3541C118.454 51.4972 118.507 51.6053 118.612 51.6786C118.719 51.7507 118.855 51.7867 119.019 51.7867ZM122.834 50.0144L122.464 50.1191C122.44 50.0574 122.406 49.9975 122.361 49.9394C122.317 49.8801 122.256 49.8312 122.179 49.7929C122.103 49.7545 122.004 49.7353 121.885 49.7353C121.721 49.7353 121.584 49.7731 121.475 49.8487C121.366 49.9231 121.312 50.0179 121.312 50.133C121.312 50.2354 121.35 50.3162 121.424 50.3755C121.498 50.4348 121.615 50.4842 121.773 50.5238L122.171 50.6215C122.41 50.6796 122.589 50.7686 122.706 50.8884C122.824 51.007 122.882 51.1599 122.882 51.3471C122.882 51.5006 122.838 51.6379 122.75 51.7588C122.663 51.8798 122.54 51.9751 122.383 52.0449C122.226 52.1147 122.044 52.1496 121.836 52.1496C121.562 52.1496 121.336 52.0903 121.157 51.9716C120.978 51.853 120.865 51.6797 120.817 51.4518L121.208 51.3541C121.245 51.4983 121.315 51.6065 121.419 51.6786C121.523 51.7507 121.66 51.7867 121.829 51.7867C122.021 51.7867 122.173 51.746 122.286 51.6646C122.4 51.5821 122.457 51.4832 122.457 51.3681C122.457 51.275 122.424 51.1971 122.359 51.1343C122.294 51.0704 122.194 51.0227 122.059 50.9913L121.612 50.8866C121.367 50.8285 121.187 50.7383 121.072 50.6162C120.958 50.4929 120.901 50.3389 120.901 50.1539C120.901 50.0028 120.943 49.869 121.028 49.7527C121.114 49.6364 121.231 49.5451 121.379 49.4789C121.528 49.4126 121.696 49.3794 121.885 49.3794C122.15 49.3794 122.358 49.4376 122.509 49.5539C122.661 49.6702 122.77 49.8237 122.834 50.0144ZM123.886 51.1169L123.879 50.6075H123.963L125.135 49.4143H125.644L124.395 50.6773H124.36L123.886 51.1169ZM123.502 52.0938V48.5212H123.914V52.0938H123.502ZM125.205 52.0938L124.158 50.768L124.451 50.4819L125.728 52.0938H125.205Z" fill="white"/>
<path d="M33.9518 216.557H32.4716L36.7526 204.898H38.21L42.4909 216.557H41.0108L37.5268 206.742H37.4357L33.9518 216.557ZM34.4983 212.002H40.4643V213.255H34.4983V212.002ZM47.4266 216.739C46.6979 216.739 46.0546 216.555 45.4967 216.187C44.9388 215.815 44.5024 215.291 44.1874 214.615C43.8724 213.936 43.7149 213.133 43.7149 212.207C43.7149 211.289 43.8724 210.492 44.1874 209.816C44.5024 209.141 44.9407 208.619 45.5024 208.251C46.0641 207.883 46.7131 207.699 47.4493 207.699C48.0186 207.699 48.4683 207.794 48.7985 207.983C49.1325 208.169 49.3868 208.382 49.5613 208.621C49.7397 208.856 49.8782 209.05 49.9769 209.202H50.0908V204.898H51.4343V216.557H50.1363V215.213H49.9769C49.8782 215.373 49.7378 215.574 49.5557 215.817C49.3735 216.056 49.1135 216.27 48.7757 216.46C48.438 216.646 47.9882 216.739 47.4266 216.739ZM47.6087 215.532C48.1476 215.532 48.6031 215.392 48.975 215.111C49.3469 214.826 49.6297 214.433 49.8232 213.932C50.0168 213.428 50.1135 212.845 50.1135 212.185C50.1135 211.532 50.0187 210.961 49.8289 210.471C49.6391 209.978 49.3583 209.594 48.9864 209.321C48.6144 209.044 48.1552 208.906 47.6087 208.906C47.0394 208.906 46.565 209.052 46.1855 209.344C45.8098 209.632 45.5271 210.025 45.3373 210.522C45.1513 211.016 45.0584 211.57 45.0584 212.185C45.0584 212.807 45.1532 213.372 45.343 213.881C45.5366 214.386 45.8212 214.788 46.1969 215.088C46.5764 215.384 47.047 215.532 47.6087 215.532ZM57.3832 216.739C56.6545 216.739 56.0113 216.555 55.4534 216.187C54.8955 215.815 54.459 215.291 54.144 214.615C53.829 213.936 53.6715 213.133 53.6715 212.207C53.6715 211.289 53.829 210.492 54.144 209.816C54.459 209.141 54.8974 208.619 55.4591 208.251C56.0207 207.883 56.6697 207.699 57.406 207.699C57.9753 207.699 58.425 207.794 58.7552 207.983C59.0891 208.169 59.3434 208.382 59.518 208.621C59.6964 208.856 59.8349 209.05 59.9336 209.202H60.0474V204.898H61.3909V216.557H60.093V215.213H59.9336C59.8349 215.373 59.6945 215.574 59.5123 215.817C59.3301 216.056 59.0702 216.27 58.7324 216.46C58.3946 216.646 57.9449 216.739 57.3832 216.739ZM57.5654 215.532C58.1043 215.532 58.5597 215.392 58.9316 215.111C59.3036 214.826 59.5863 214.433 59.7799 213.932C59.9734 213.428 60.0702 212.845 60.0702 212.185C60.0702 211.532 59.9753 210.961 59.7856 210.471C59.5958 209.978 59.315 209.594 58.943 209.321C58.5711 209.044 58.1119 208.906 57.5654 208.906C56.9961 208.906 56.5217 209.052 56.1422 209.344C55.7665 209.632 55.4837 210.025 55.294 210.522C55.108 211.016 55.015 211.57 55.015 212.185C55.015 212.807 55.1099 213.372 55.2997 213.881C55.4932 214.386 55.7778 214.788 56.1536 215.088C56.5331 215.384 57.0037 215.532 57.5654 215.532ZM72.3495 207.813V208.951H67.8181V207.813H72.3495ZM69.1388 205.718H70.4823V214.052C70.4823 214.431 70.5373 214.716 70.6474 214.906C70.7612 215.092 70.9054 215.217 71.08 215.281C71.2584 215.342 71.4463 215.373 71.6436 215.373C71.7916 215.373 71.9131 215.365 72.0079 215.35C72.1028 215.331 72.1787 215.316 72.2357 215.304L72.5089 216.511C72.4178 216.545 72.2907 216.579 72.1275 216.614C71.9643 216.652 71.7575 216.67 71.507 216.67C71.1275 216.67 70.7555 216.589 70.3912 216.426C70.0307 216.263 69.7308 216.014 69.4917 215.68C69.2564 215.346 69.1388 214.925 69.1388 214.416V205.718ZM77.8288 216.739C77.0394 216.739 76.3468 216.551 75.7509 216.175C75.1589 215.8 74.6959 215.274 74.3619 214.598C74.0317 213.923 73.8666 213.133 73.8666 212.23C73.8666 211.319 74.0317 210.524 74.3619 209.845C74.6959 209.166 75.1589 208.638 75.7509 208.262C76.3468 207.887 77.0394 207.699 77.8288 207.699C78.6182 207.699 79.3089 207.887 79.901 208.262C80.4968 208.638 80.9598 209.166 81.29 209.845C81.624 210.524 81.791 211.319 81.791 212.23C81.791 213.133 81.624 213.923 81.29 214.598C80.9598 215.274 80.4968 215.8 79.901 216.175C79.3089 216.551 78.6182 216.739 77.8288 216.739ZM77.8288 215.532C78.4284 215.532 78.9218 215.378 79.3089 215.071C79.696 214.763 79.9826 214.359 80.1685 213.858C80.3545 213.357 80.4475 212.815 80.4475 212.23C80.4475 211.646 80.3545 211.101 80.1685 210.596C79.9826 210.092 79.696 209.684 79.3089 209.372C78.9218 209.061 78.4284 208.906 77.8288 208.906C77.2292 208.906 76.7358 209.061 76.3487 209.372C75.9616 209.684 75.675 210.092 75.4891 210.596C75.3031 211.101 75.2101 211.646 75.2101 212.23C75.2101 212.815 75.3031 213.357 75.4891 213.858C75.675 214.359 75.9616 214.763 76.3487 215.071C76.7358 215.378 77.2292 215.532 77.8288 215.532ZM87.1436 216.739C86.4149 216.739 85.7716 216.555 85.2137 216.187C84.6559 215.815 84.2194 215.291 83.9044 214.615C83.5894 213.936 83.4319 213.133 83.4319 212.207C83.4319 211.289 83.5894 210.492 83.9044 209.816C84.2194 209.141 84.6578 208.619 85.2194 208.251C85.7811 207.883 86.4301 207.699 87.1664 207.699C87.7356 207.699 88.1854 207.794 88.5156 207.983C88.8495 208.169 89.1038 208.382 89.2784 208.621C89.4568 208.856 89.5953 209.05 89.694 209.202H89.8078V204.898H91.1513V216.557H89.8534V215.213H89.694C89.5953 215.373 89.4549 215.574 89.2727 215.817C89.0905 216.056 88.8306 216.27 88.4928 216.46C88.155 216.646 87.7053 216.739 87.1436 216.739ZM87.3258 215.532C87.8647 215.532 88.3201 215.392 88.692 215.111C89.064 214.826 89.3467 214.433 89.5403 213.932C89.7338 213.428 89.8306 212.845 89.8306 212.185C89.8306 211.532 89.7357 210.961 89.5459 210.471C89.3562 209.978 89.0753 209.594 88.7034 209.321C88.3315 209.044 87.8723 208.906 87.3258 208.906C86.7565 208.906 86.2821 209.052 85.9026 209.344C85.5268 209.632 85.2441 210.025 85.0543 210.522C84.8684 211.016 84.7754 211.57 84.7754 212.185C84.7754 212.807 84.8703 213.372 85.06 213.881C85.2536 214.386 85.5382 214.788 85.914 215.088C86.2935 215.384 86.7641 215.532 87.3258 215.532ZM96.3716 216.762C95.8175 216.762 95.3146 216.657 94.863 216.448C94.4114 216.236 94.0527 215.93 93.7871 215.532C93.5214 215.13 93.3886 214.644 93.3886 214.075C93.3886 213.574 93.4872 213.168 93.6846 212.856C93.8819 212.541 94.1457 212.295 94.4759 212.116C94.8061 211.938 95.1704 211.805 95.5689 211.718C95.9712 211.627 96.3754 211.555 96.7815 211.501C97.3128 211.433 97.7435 211.382 98.0737 211.348C98.4077 211.31 98.6506 211.247 98.8024 211.16C98.958 211.073 99.0358 210.921 99.0358 210.704V210.659C99.0358 210.097 98.8821 209.661 98.5747 209.35C98.2711 209.038 97.8099 208.883 97.1913 208.883C96.5499 208.883 96.0471 209.023 95.6827 209.304C95.3184 209.585 95.0622 209.885 94.9142 210.204L93.639 209.748C93.8668 209.217 94.1704 208.803 94.5499 208.507C94.9332 208.207 95.3507 207.999 95.8023 207.881C96.2577 207.759 96.7055 207.699 97.1458 207.699C97.4266 207.699 97.7492 207.733 98.1136 207.801C98.4817 207.866 98.8365 208 99.1781 208.205C99.5235 208.41 99.81 208.72 100.038 209.133C100.265 209.547 100.379 210.101 100.379 210.796V216.557H99.0358V215.373H98.9675C98.8764 215.562 98.7246 215.765 98.5121 215.982C98.2995 216.198 98.0168 216.382 97.6638 216.534C97.3109 216.686 96.8801 216.762 96.3716 216.762ZM96.5765 215.555C97.1078 215.555 97.5557 215.45 97.92 215.242C98.2881 215.033 98.5652 214.763 98.7512 214.433C98.9409 214.103 99.0358 213.756 99.0358 213.391V212.162C98.9789 212.23 98.8536 212.293 98.6601 212.35C98.4703 212.403 98.2502 212.45 97.9997 212.492C97.753 212.53 97.512 212.564 97.2767 212.594C97.0452 212.621 96.8574 212.644 96.7131 212.663C96.364 212.708 96.0376 212.782 95.734 212.885C95.4342 212.983 95.1913 213.133 95.0053 213.335C94.8231 213.532 94.7321 213.801 94.7321 214.143C94.7321 214.61 94.9047 214.963 95.2501 215.202C95.5993 215.437 96.0414 215.555 96.5765 215.555ZM103.384 219.836C103.156 219.836 102.953 219.817 102.775 219.779C102.596 219.745 102.473 219.71 102.404 219.676L102.746 218.492C103.072 218.576 103.361 218.606 103.611 218.583C103.862 218.56 104.084 218.449 104.277 218.247C104.475 218.05 104.655 217.729 104.818 217.285L105.069 216.602L101.835 207.813H103.293L105.706 214.78H105.797L108.211 207.813H109.668L105.957 217.832C105.79 218.283 105.583 218.657 105.336 218.953C105.09 219.253 104.803 219.475 104.477 219.619C104.154 219.764 103.79 219.836 103.384 219.836ZM112.603 204.898V208.906H111.351V204.898H112.603ZM121.189 209.771L119.982 210.112C119.906 209.911 119.794 209.716 119.646 209.526C119.502 209.333 119.305 209.173 119.054 209.048C118.804 208.923 118.483 208.86 118.092 208.86C117.557 208.86 117.111 208.983 116.755 209.23C116.402 209.473 116.225 209.782 116.225 210.158C116.225 210.492 116.347 210.756 116.589 210.949C116.832 211.143 117.212 211.304 117.728 211.433L119.026 211.752C119.808 211.942 120.39 212.232 120.774 212.623C121.157 213.01 121.349 213.509 121.349 214.12C121.349 214.621 121.204 215.069 120.916 215.464C120.631 215.858 120.233 216.17 119.72 216.397C119.208 216.625 118.612 216.739 117.933 216.739C117.041 216.739 116.303 216.545 115.718 216.158C115.134 215.771 114.764 215.206 114.608 214.462L115.884 214.143C116.005 214.614 116.235 214.966 116.572 215.202C116.914 215.437 117.36 215.555 117.91 215.555C118.536 215.555 119.034 215.422 119.402 215.156C119.774 214.887 119.96 214.564 119.96 214.188C119.96 213.885 119.853 213.631 119.641 213.426C119.428 213.217 119.102 213.061 118.662 212.959L117.204 212.617C116.403 212.427 115.815 212.133 115.44 211.735C115.068 211.333 114.882 210.83 114.882 210.226C114.882 209.733 115.02 209.296 115.297 208.917C115.578 208.537 115.959 208.24 116.441 208.023C116.927 207.807 117.478 207.699 118.092 207.699C118.958 207.699 119.637 207.888 120.13 208.268C120.628 208.647 120.98 209.148 121.189 209.771ZM131.682 207.813V208.951H127.151V207.813H131.682ZM128.472 205.718H129.815V214.052C129.815 214.431 129.87 214.716 129.98 214.906C130.094 215.092 130.238 215.217 130.413 215.281C130.591 215.342 130.779 215.373 130.976 215.373C131.125 215.373 131.246 215.365 131.341 215.35C131.436 215.331 131.512 215.316 131.569 215.304L131.842 216.511C131.751 216.545 131.624 216.579 131.46 216.614C131.297 216.652 131.09 216.67 130.84 216.67C130.46 216.67 130.088 216.589 129.724 216.426C129.364 216.263 129.064 216.014 128.825 215.68C128.589 215.346 128.472 214.925 128.472 214.416V205.718ZM136.276 216.762C135.722 216.762 135.22 216.657 134.768 216.448C134.316 216.236 133.958 215.93 133.692 215.532C133.426 215.13 133.293 214.644 133.293 214.075C133.293 213.574 133.392 213.168 133.589 212.856C133.787 212.541 134.051 212.295 134.381 212.116C134.711 211.938 135.075 211.805 135.474 211.718C135.876 211.627 136.28 211.555 136.686 211.501C137.218 211.433 137.648 211.382 137.979 211.348C138.313 211.31 138.555 211.247 138.707 211.16C138.863 211.073 138.941 210.921 138.941 210.704V210.659C138.941 210.097 138.787 209.661 138.48 209.35C138.176 209.038 137.715 208.883 137.096 208.883C136.455 208.883 135.952 209.023 135.588 209.304C135.223 209.585 134.967 209.885 134.819 210.204L133.544 209.748C133.772 209.217 134.075 208.803 134.455 208.507C134.838 208.207 135.256 207.999 135.707 207.881C136.163 207.759 136.61 207.699 137.051 207.699C137.332 207.699 137.654 207.733 138.018 207.801C138.387 207.866 138.741 208 139.083 208.205C139.428 208.41 139.715 208.72 139.943 209.133C140.17 209.547 140.284 210.101 140.284 210.796V216.557H138.941V215.373H138.872C138.781 215.562 138.629 215.765 138.417 215.982C138.204 216.198 137.922 216.382 137.569 216.534C137.216 216.686 136.785 216.762 136.276 216.762ZM136.481 215.555C137.013 215.555 137.461 215.45 137.825 215.242C138.193 215.033 138.47 214.763 138.656 214.433C138.846 214.103 138.941 213.756 138.941 213.391V212.162C138.884 212.23 138.759 212.293 138.565 212.35C138.375 212.403 138.155 212.45 137.905 212.492C137.658 212.53 137.417 212.564 137.182 212.594C136.95 212.621 136.762 212.644 136.618 212.663C136.269 212.708 135.942 212.782 135.639 212.885C135.339 212.983 135.096 213.133 134.91 213.335C134.728 213.532 134.637 213.801 134.637 214.143C134.637 214.61 134.81 214.963 135.155 215.202C135.504 215.437 135.946 215.555 136.481 215.555ZM148.93 209.771L147.723 210.112C147.647 209.911 147.535 209.716 147.387 209.526C147.243 209.333 147.046 209.173 146.795 209.048C146.545 208.923 146.224 208.86 145.833 208.86C145.298 208.86 144.852 208.983 144.495 209.23C144.142 209.473 143.966 209.782 143.966 210.158C143.966 210.492 144.087 210.756 144.33 210.949C144.573 211.143 144.953 211.304 145.469 211.433L146.767 211.752C147.549 211.942 148.131 212.232 148.515 212.623C148.898 213.01 149.089 213.509 149.089 214.12C149.089 214.621 148.945 215.069 148.657 215.464C148.372 215.858 147.974 216.17 147.461 216.397C146.949 216.625 146.353 216.739 145.674 216.739C144.782 216.739 144.044 216.545 143.459 216.158C142.875 215.771 142.505 215.206 142.349 214.462L143.624 214.143C143.746 214.614 143.975 214.966 144.313 215.202C144.655 215.437 145.101 215.555 145.651 215.555C146.277 215.555 146.774 215.422 147.143 215.156C147.514 214.887 147.7 214.564 147.7 214.188C147.7 213.885 147.594 213.631 147.382 213.426C147.169 213.217 146.843 213.061 146.402 212.959L144.945 212.617C144.144 212.427 143.556 212.133 143.18 211.735C142.808 211.333 142.622 210.83 142.622 210.226C142.622 209.733 142.761 209.296 143.038 208.917C143.319 208.537 143.7 208.24 144.182 208.023C144.668 207.807 145.218 207.699 145.833 207.699C146.699 207.699 147.378 207.888 147.871 208.268C148.368 208.647 148.721 209.148 148.93 209.771ZM152.364 213.369L152.341 211.706H152.615L156.44 207.813H158.103L154.027 211.934H153.913L152.364 213.369ZM151.112 216.557V204.898H152.455V216.557H151.112ZM156.668 216.557L153.252 212.23L154.209 211.297L158.376 216.557H156.668ZM165.684 211.297V216.557H164.34V204.898H165.684V209.179H165.798C166.003 208.727 166.31 208.369 166.72 208.103C167.134 207.833 167.684 207.699 168.371 207.699C168.967 207.699 169.489 207.818 169.936 208.057C170.384 208.293 170.731 208.655 170.978 209.145C171.229 209.63 171.354 210.249 171.354 211V216.557H170.01V211.092C170.01 210.397 169.83 209.86 169.47 209.481C169.113 209.097 168.618 208.906 167.984 208.906C167.544 208.906 167.149 208.999 166.8 209.185C166.454 209.37 166.181 209.642 165.98 209.999C165.783 210.355 165.684 210.788 165.684 211.297ZM177.478 216.739C176.635 216.739 175.909 216.553 175.298 216.181C174.69 215.805 174.222 215.281 173.891 214.61C173.565 213.934 173.402 213.149 173.402 212.253C173.402 211.357 173.565 210.568 173.891 209.885C174.222 209.198 174.681 208.663 175.269 208.279C175.861 207.892 176.552 207.699 177.341 207.699C177.797 207.699 178.246 207.775 178.69 207.926C179.134 208.078 179.539 208.325 179.903 208.666C180.267 209.004 180.558 209.452 180.774 210.01C180.99 210.568 181.098 211.255 181.098 212.071V212.64H174.358V211.479H179.732C179.732 210.985 179.634 210.545 179.436 210.158C179.243 209.771 178.966 209.465 178.605 209.241C178.248 209.018 177.827 208.906 177.341 208.906C176.806 208.906 176.343 209.038 175.952 209.304C175.565 209.566 175.267 209.907 175.058 210.329C174.85 210.75 174.745 211.202 174.745 211.684V212.458C174.745 213.118 174.859 213.678 175.087 214.137C175.318 214.593 175.639 214.94 176.049 215.179C176.459 215.414 176.935 215.532 177.478 215.532C177.831 215.532 178.15 215.483 178.434 215.384C178.723 215.281 178.971 215.13 179.18 214.929C179.389 214.724 179.55 214.469 179.664 214.166L180.962 214.53C180.825 214.97 180.596 215.357 180.273 215.691C179.95 216.022 179.552 216.28 179.078 216.466C178.603 216.648 178.07 216.739 177.478 216.739ZM183.142 216.557V207.813H184.44V209.133H184.531C184.691 208.701 184.979 208.35 185.397 208.08C185.814 207.811 186.285 207.676 186.808 207.676C186.907 207.676 187.03 207.678 187.178 207.682C187.326 207.685 187.438 207.691 187.514 207.699V209.065C187.469 209.054 187.364 209.036 187.201 209.014C187.042 208.987 186.873 208.974 186.694 208.974C186.269 208.974 185.89 209.063 185.556 209.241C185.226 209.416 184.964 209.659 184.77 209.97C184.581 210.278 184.486 210.629 184.486 211.023V216.557H183.142ZM192.507 216.739C191.664 216.739 190.937 216.553 190.326 216.181C189.719 215.805 189.251 215.281 188.92 214.61C188.594 213.934 188.431 213.149 188.431 212.253C188.431 211.357 188.594 210.568 188.92 209.885C189.251 209.198 189.71 208.663 190.298 208.279C190.89 207.892 191.581 207.699 192.37 207.699C192.826 207.699 193.275 207.775 193.719 207.926C194.163 208.078 194.568 208.325 194.932 208.666C195.296 209.004 195.587 209.452 195.803 210.01C196.019 210.568 196.127 211.255 196.127 212.071V212.64H189.387V211.479H194.761C194.761 210.985 194.662 210.545 194.465 210.158C194.272 209.771 193.995 209.465 193.634 209.241C193.277 209.018 192.856 208.906 192.37 208.906C191.835 208.906 191.372 209.038 190.981 209.304C190.594 209.566 190.296 209.907 190.087 210.329C189.879 210.75 189.774 211.202 189.774 211.684V212.458C189.774 213.118 189.888 213.678 190.116 214.137C190.347 214.593 190.668 214.94 191.078 215.179C191.488 215.414 191.964 215.532 192.507 215.532C192.86 215.532 193.179 215.483 193.463 215.384C193.752 215.281 194 215.13 194.209 214.929C194.418 214.724 194.579 214.469 194.693 214.166L195.991 214.53C195.854 214.97 195.625 215.357 195.302 215.691C194.979 216.022 194.581 216.28 194.106 216.466C193.632 216.648 193.099 216.739 192.507 216.739ZM199.15 216.648C198.869 216.648 198.628 216.547 198.427 216.346C198.226 216.145 198.126 215.904 198.126 215.623C198.126 215.342 198.226 215.101 198.427 214.9C198.628 214.699 198.869 214.598 199.15 214.598C199.431 214.598 199.672 214.699 199.873 214.9C200.074 215.101 200.175 215.342 200.175 215.623C200.175 215.809 200.128 215.98 200.033 216.135C199.942 216.291 199.818 216.416 199.663 216.511C199.511 216.602 199.34 216.648 199.15 216.648Z" fill="#687281"/>
</svg>
