<svg width="18" height="18" viewBox="0 0 18 18" fill="none" xmlns="http://www.w3.org/2000/svg">
<path d="M13.4986 5.37C13.4536 5.3625 13.4011 5.3625 13.3561 5.37C12.3211 5.3325 11.4961 4.485 11.4961 3.435C11.4961 2.3625 12.3586 1.5 13.4311 1.5C14.5036 1.5 15.3661 2.37 15.3661 3.435C15.3586 4.485 14.5336 5.3325 13.4986 5.37Z" stroke="#292D32" stroke-width="1.2" stroke-linecap="round" stroke-linejoin="round"/>
<path d="M12.7256 10.8301C13.7531 11.0026 14.8856 10.8226 15.6806 10.2901C16.7381 9.58512 16.7381 8.43012 15.6806 7.72512C14.8781 7.19262 13.7306 7.01262 12.7031 7.19262" stroke="#292D32" stroke-width="1.2" stroke-linecap="round" stroke-linejoin="round"/>
<path d="M4.47492 5.37C4.51992 5.3625 4.57242 5.3625 4.61742 5.37C5.65242 5.3325 6.47742 4.485 6.47742 3.435C6.47742 2.3625 5.61492 1.5 4.54242 1.5C3.46992 1.5 2.60742 2.37 2.60742 3.435C2.61492 4.485 3.43992 5.3325 4.47492 5.37Z" stroke="#292D32" stroke-width="1.2" stroke-linecap="round" stroke-linejoin="round"/>
<path d="M5.24812 10.8301C4.22062 11.0026 3.08812 10.8226 2.29313 10.2901C1.23563 9.58512 1.23563 8.43012 2.29313 7.72512C3.09563 7.19262 4.24312 7.01262 5.27062 7.19262" stroke="#292D32" stroke-width="1.2" stroke-linecap="round" stroke-linejoin="round"/>
<path d="M8.99859 10.9716C8.95359 10.9641 8.90109 10.9641 8.85609 10.9716C7.82109 10.9341 6.99609 10.0866 6.99609 9.03656C6.99609 7.96406 7.85859 7.10156 8.93109 7.10156C10.0036 7.10156 10.8661 7.97156 10.8661 9.03656C10.8586 10.0866 10.0336 10.9416 8.99859 10.9716Z" stroke="#292D32" stroke-width="1.2" stroke-linecap="round" stroke-linejoin="round"/>
<path d="M6.81656 13.3345C5.75906 14.0395 5.75906 15.1945 6.81656 15.8995C8.01656 16.702 9.98156 16.702 11.1816 15.8995C12.2391 15.1945 12.2391 14.0395 11.1816 13.3345C9.98906 12.5395 8.01656 12.5395 6.81656 13.3345Z" stroke="#292D32" stroke-width="1.2" stroke-linecap="round" stroke-linejoin="round"/>
</svg>
